<svg width="41" height="33" version="1.1" viewBox="0 0 41 33" xmlns="http://www.w3.org/2000/svg">
 <g transform="matrix(1.1313 0 0 1.2759 8.3382 2.3188)" fill="none" fill-rule="evenodd">
  <path d="m19.508 1.25h-17.516c-0.41 0-0.742 0.332-0.742 0.742 0 2.067 0.886 4.04 2.43 5.413l3.252 2.89c0.563 0.5 0.886 1.22 0.886 1.974v7.238c0 0.591 0.661 0.946 1.154 0.617l4.38-2.919c0.206-0.137 0.33-0.369 0.33-0.617v-4.319c0-0.754 0.323-1.474 0.887-1.975l3.25-2.889c1.545-1.373 2.431-3.345 2.431-5.413 0-0.41-0.332-0.742-0.742-0.742z" fill="none" fill-rule="nonzero" stroke="#2e3a59" stroke-width="2.5"/>
 </g>
</svg>
