<svg width="24" height="24" version="1.1" viewBox="0 0 24 24" xmlns="http://www.w3.org/2000/svg" xmlns:xlink="http://www.w3.org/1999/xlink">
 <defs>
  <path id="b" d="M0 0H24V24H0z"/>
 </defs>
 <g fill-rule="evenodd">
  <mask id="a" fill="#fff">
   <use xlink:href="#b"/>
  </mask>
  <path d="m11 9h2v-2h-2v2zm0 8h3v-2h-1v-4h-3v2h1v4zm1-15c-5.52 0-10 4.48-10 10s4.48 10 10 10 10-4.48 10-10-4.48-10-10-10c-3.68 0-3.68 0 0 0zm-8 10c0 4.41 3.59 8 8 8s8-3.59 8-8-3.59-8-8-8-8 3.59-8 8z" fill="#2E3A59" mask="url(#a)"/>
 </g>
</svg>
