<svg xmlns="http://www.w3.org/2000/svg" xmlns:xlink="http://www.w3.org/1999/xlink" width="24" height="24" viewBox="0 0 24 24">
    <defs>
        <path id="xwy36bruba" d="M0 0H24V24H0z"/>
    </defs>
    <g fill="none" fill-rule="evenodd">
        <g>
            <mask id="lsesitp02b" fill="#fff">
                <use xlink:href="#xwy36bruba"/>
            </mask>
            <path fill="#2E3A59" d="M12 2C6.48 2 2 6.48 2 12s4.48 10 10 10 10-4.48 10-10S17.52 2 12 2c-3.68 0-3.68 0 0 0zm-1 5v4H7v2h4v4h2v-4h4v-2h-4V7h-2zm-7 5c0 4.41 3.59 8 8 8s8-3.59 8-8-3.59-8-8-8-8 3.59-8 8c0 2.94 0 2.94 0 0z" mask="url(#lsesitp02b)"/>
        </g>
    </g>
</svg>
