<svg width="24" height="24" version="1.1" viewBox="0 0 24 24" xmlns="http://www.w3.org/2000/svg" xmlns:xlink="http://www.w3.org/1999/xlink">
 <defs>
  <path id="a" d="M0 0H24V24H0z"/>
  <mask id="b" fill="#ffffff">
   <use width="100%" height="100%" xlink:href="#a"/>
  </mask>
  <mask id="c" fill="#ffffff">
   <path d="m0 0h24v24h-24z"/>
  </mask>
 </defs>
 <path d="m4 4c-1.105 0-2 0.895-2 2v12c0 1.105 0.895 2 2 2h7.8184c-0.22879-0.62664-0.3607-1.299-0.37695-2h-7.4414v-10.131l8 5.332 8-5.332v4.1406c0.74703 0.29327 1.4238 0.72609 2 1.2656v-7.2754c0-1.105-0.895-2-2-2zm0.80273 2h14.395l-7.1973 4.7988z" fill="#2e3a59" fill-rule="evenodd" mask="url(#b)"/>
 <path transform="matrix(.5212 0 0 .5212 11.529 11.754)" d="m2 12c0 5.514 4.486 10 10 10s10-4.486 10-10-4.486-10-10-10-10 4.486-10 10zm2 0c0-4.411 3.589-8 8-8s8 3.589 8 8-3.589 8-8 8-8-3.589-8-8zm7-5v6h6v-2h-4v-4z" fill="#2e3a59" fill-rule="evenodd" mask="url(#c)" stroke="#2e3a59" stroke-width="1.0188"/>
</svg>
