<svg width="24" height="24" version="1.1" viewBox="0 0 24 24" xmlns="http://www.w3.org/2000/svg" xmlns:xlink="http://www.w3.org/1999/xlink">
 <defs>
  <path id="a" d="M0 0H24V24H0z"/>
  <mask id="b" fill="#ffffff">
   <use width="100%" height="100%" xlink:href="#a"/>
  </mask>
 </defs>
 <path d="m4 4c-1.105 0-2 0.895-2 2v12c0 1.105 0.895 2 2 2h9.9461c-0.81554-0.86579-1.6146-1.7179-1.6973-2h-8.2488v-10.131l8 5.332 8-5.332v6.7644c0.07395 0.06439 0.08599 0.05384 0.16016 0.11914l1.8398 1.6211v-10.374c0-1.105-0.895-2-2-2zm0.80273 2h14.395l-7.1973 4.7988z" fill="#2e3a59" fill-rule="evenodd" mask="url(#b)"/>
 <g transform="matrix(.80707 0 0 .80707 24.837 .48818)" fill="#2e3a59" stroke-width=".25648">
  <path d="m-11.97 24.082c-1.6862-1.6018-2.9534-3.0942-2.816-3.3165s1.5776 0.91471 3.2005 2.5268l2.9507 2.931 4.4351-0.2522 0.13088-1.5994c0.12363-1.5108-0.04588-1.7772-3.0601-4.8092-3.4932-3.5138-4.3349-3.8212-5.9005-2.1547l-0.99121 1.0551 2.864 2.6144c3.0846 2.8158 4.1215 3.3906 4.8332 2.6789 0.33286-0.33286-0.22517-1.1398-2.0877-3.019-1.3981-1.4106-2.5419-2.6979-2.5419-2.8607 0-0.85893 1.3227-0.01763 3.6259 2.3062 2.151 2.1703 2.5566 2.7986 2.4439 3.7859-0.1179 1.0329-0.32269 1.1995-1.6068 1.307-1.337 0.11198-1.8054-0.18105-5.1161-3.2005-2.0044-1.8281-3.7024-3.4848-3.7732-3.6817-0.19303-0.53639 3.2119-3.4733 4.0268-3.4733 0.38899 0 2.3806 1.4734 4.4259 3.2743l3.7186 3.2743 0.03158 5.5254h-5.7276z"/>
  <path d="m-10.521 25.449c-1.9814-1.8838-2.4993-2.3948-3.1188-3.0769-0.67665-0.74498-1.112-1.3303-1.1462-1.5412-0.0466-0.28716 0.66939 0.16714 1.7367 1.1019 0.70104 0.61403 0.89896 0.80625 3.7961 3.687l0.60634 0.6029 0.12711-0.0035c0.11226-0.0031 1.3561-0.07235 3.6044-0.2008 0.39259-0.02243 0.7157-0.04256 0.71801-0.04471 0.0044-0.0041 0.10255-1.1789 0.14054-1.6824 0.02618-0.34697 0.02053-0.7398-0.01329-0.92383-0.04817-0.26225-0.18304-0.58208-0.36158-0.85745-0.24731-0.38144-0.62187-0.82284-1.3285-1.5655-0.41517-0.43638-2.3629-2.3813-2.6784-2.6746-1.3678-1.2713-2.125-1.7673-2.805-1.837-0.51643-0.05299-0.9917 0.1746-1.5809 0.75707-0.203 0.20068-1.2126 1.2717-1.2047 1.278 0.0026 2e-3 0.647 0.58961 1.4322 1.3059 0.78518 0.71626 1.5838 1.4436 1.7747 1.6163 2.4655 2.2304 3.5289 2.8819 4.2113 2.5802 0.13578-0.06004 0.30317-0.19699 0.34785-0.28458 0.15811-0.30989-0.19531-0.88586-1.2319-2.0076-0.25357-0.27441-0.47023-0.49912-1.0484-1.0874-1.1221-1.1417-2.0609-2.1798-2.3193-2.5644-0.06989-0.10408-0.07753-0.12215-0.07747-0.18336 1.42e-4 -0.13192 0.05434-0.23378 0.14422-0.271 0.05063-0.02098 0.20591-0.01092 0.29447 0.01907 0.38817 0.13143 1.0352 0.59662 1.8397 1.3228 0.84004 0.75818 2.1919 2.127 2.812 2.8473 0.56366 0.65474 0.84672 1.128 0.94395 1.5782 0.03559 0.1648 0.03194 0.55763-0.0075 0.81305-0.13082 0.84617-0.35864 1.0095-1.5542 1.1143-0.25901 0.02271-0.54001 0.02509-0.70672 6e-3 -0.76903-0.08812-1.4339-0.526-3.2421-2.1353-2.2512-2.0035-4.7915-4.4337-4.9469-4.7326-0.05656-0.10875 0.06266-0.3384 0.36776-0.7084 0.15232-0.18472 0.77096-0.80588 1.0429-1.0471 1.0731-0.95204 2.1262-1.6613 2.5497-1.7171 0.04947-0.0065 0.08828-0.0025 0.14407 0.01504 0.497 0.15606 2.1288 1.3596 3.8484 2.8384 0.26353 0.22662 1.101 0.96244 3.3595 2.9515l0.83168 0.73249 0.0081 0.89003c0.0044 0.48951 0.01249 1.7314 0.01792 2.7597l0.0098 1.8696-5.7201-0.001965z" fill-rule="evenodd" stroke="#2e3a59"/>
 </g>
</svg>
