<svg width="24" height="24" version="1.1" viewBox="0 0 24 24" xmlns="http://www.w3.org/2000/svg" xmlns:xlink="http://www.w3.org/1999/xlink">
 <defs>
  <path id="a" d="M0 0H24V24H0z"/>
  <mask id="c" fill="#ffffff">
   <path d="m0 0h24v24h-24z"/>
  </mask>
  <mask id="b" fill="#ffffff">
   <use width="100%" height="100%" xlink:href="#a"/>
  </mask>
 </defs>
 <path d="m4 6v2h2v-2zm4.0234 0v2h11.977v-2zm-4.0234 5v2h2v-2zm4 0v2h12v-2zm-4 5v2h2v-2zm4 0v2h4.8223c0.13484-0.74446 0.45134-1.4207 0.89258-2z" fill="#2e3a59" fill-rule="evenodd" mask="url(#b)"/>
 <path transform="matrix(.4743 0 0 .4743 13.32 13.282)" d="m2 12c0 5.514 4.486 10 10 10s10-4.486 10-10-4.486-10-10-10-10 4.486-10 10zm2 0c0-4.411 3.589-8 8-8s8 3.589 8 8-3.589 8-8 8-8-3.589-8-8zm7-5v6h6v-2h-4v-4z" fill="#2e3a59" fill-rule="evenodd" mask="url(#c)" stroke="#2e3a59" stroke-width="1.0188"/>
</svg>
