<svg width="24" height="24" version="1.1" viewBox="0 0 24 24" xmlns="http://www.w3.org/2000/svg" xmlns:xlink="http://www.w3.org/1999/xlink">
 <defs>
  <path id="c" d="M0 0H24V24H0z"/>
  <mask id="b" fill="#ffffff">
   <path d="m0 0h24v24h-24z"/>
  </mask>
  <mask id="a" fill="#ffffff">
   <use width="100%" height="100%" xlink:href="#c"/>
  </mask>
 </defs>
 <path d="m7 5c-1.103 0-2 0.897-2 2v10c0 1.103 0.897 2 2 2h5.3223v-1.9062c0-0.03373 0.015-0.06101 0.01758-0.09375h-5.3398v-10h10l2e-3 5.6641h1.998v-5.6641c0-1.103-0.897-2-2-2z" fill="#2e3a59" fill-rule="evenodd" mask="url(#a)"/>
 <path transform="matrix(.44422 0 0 .44422 12.348 12.732)" d="m10 2h10c1.152 0 2 0.848 2 2v10c0 1.152-0.848 2-2 2h-4v4c0 1.152-0.848 2-2 2h-10c-1.152 0-2-0.848-2-2v-10c0-1.152 0.848-2 2-2h4v-4c0-1.152 0.848-2 2-2zm-2 8h-4v10h10v-4h-4c-1.152 0-2-0.848-2-2zm2-6v10h10v-10z" fill="#2e3a59" fill-rule="evenodd" mask="url(#b)" stroke="#2e3a59"/>
</svg>
