<svg width="24" height="24" version="1.1" viewBox="0 0 24 24" xmlns="http://www.w3.org/2000/svg" xmlns:xlink="http://www.w3.org/1999/xlink">
 <defs>
  <path id="a" d="M0 0H24V24H0z"/>
 </defs>
 <g fill-rule="evenodd">
  <mask id="b" fill="#fff">
   <use xlink:href="#a"/>
  </mask>
  <path d="m15 11v2h-2v2h-2v-2h-2v-2h2v-2h2v2h2zm3-0.5c0-3.07-1.13-5.64-4-6.32v-2.18h-4v2.18c-2.86 0.68-4 3.24-4 6.32v5.5l-2 1v2h16v-2l-2-1v-5.5zm-10 6.5h8v-6.5c0-2.48-1-4.75-4-4.75s-4 2.27-4 4.75v6.5zm6 3h-4c0 1.1 0.9 2 2 2s2-0.9 2-2z" fill="#2E3A59" mask="url(#b)"/>
 </g>
</svg>
