<svg width="22" height="22" version="1.1" viewBox="0 0 22 22" xmlns="http://www.w3.org/2000/svg">
 <defs>
  <filter id="b">
   <feColorMatrix in="SourceGraphic" values="0 0 0 0 0.976471 0 0 0 0 0.831373 0 0 0 0 0.701961 0 0 0 1.000000 0"/>
  </filter>
  <mask id="a" fill="#fff">
   <path d="m0 0h24v24h-24z"/>
  </mask>
 </defs>
 <g transform="matrix(.83327 0 0 .83047 1.8644 1.865)" fill="none">
  <g filter="url(#b)">
   <g fill="#000">
    <circle cx="15.641" cy="6.018" r="1.375"/>
    <path d="m21.763 7.13c-0.46-1.168-1.3-2.854-2.704-4.25-1.398-1.393-3.066-2.21-4.219-2.65-1.266-0.484-2.705-0.18-3.665 0.777l-3.375 3.358c-1 0.996-1.288 2.528-0.717 3.813 0.177 0.398 0.37 0.788 0.575 1.164l-7.406 7.408c-0.161 0.161-0.252 0.38-0.252 0.608v3.78c0 0.476 0.385 0.86 0.86 0.86h3.78c0.475 0 0.86-0.384 0.86-0.86v-1.546h1.547c0.475 0 0.86-0.385 0.86-0.86v-1.546h1.546c0.475 0 0.86-0.385 0.86-0.86 0-0.474-0.385-0.859-0.86-0.859h-2.406c-0.475 0-0.86 0.385-0.86 0.86v1.546h-1.546c-0.475 0-0.86 0.385-0.86 0.86v1.547h-2.061v-2.566l7.62-7.621c0.28-0.28 0.333-0.715 0.128-1.054-0.298-0.49-0.572-1.015-0.814-1.559-0.283-0.637-0.139-1.4 0.36-1.895l3.375-3.36c0.481-0.479 1.203-0.632 1.839-0.389 0.997 0.381 2.435 1.084 3.62 2.263 1.192 1.186 1.917 2.645 2.316 3.66 0.249 0.634 0.098 1.354-0.385 1.835l-3.416 3.399c-0.497 0.495-1.24 0.64-1.891 0.369-0.537-0.224-1.058-0.49-1.547-0.79-0.404-0.248-0.934-0.121-1.182 0.283-0.248 0.405-0.121 0.934 0.283 1.182 0.565 0.347 1.166 0.654 1.786 0.912 1.295 0.538 2.772 0.249 3.764-0.738l3.415-3.4c0.969-0.963 1.272-2.408 0.773-3.68z" fill="#000" fill-rule="evenodd"/>
   </g>
  </g>
 </g>
 <path d="m2.3695 20.091c-0.2262-0.0712-0.42234-0.28168-0.47079-0.50518-0.017989-0.08298-0.023563-0.62894-0.018501-1.8122l0.00723-1.6934 0.054188-0.10368c0.037853-0.07242 0.99784-1.0449 3.1843-3.2256l3.1302-3.122-0.17409-0.33852c-0.4518-0.87855-0.56165-1.2689-0.53622-1.905 0.022777-0.56964 0.21572-1.1217 0.54445-1.5578 0.083885-0.11127 0.7649-0.80592 1.7186-1.7529 1.6682-1.6566 1.7109-1.6947 2.1345-1.905 0.60403-0.29986 1.3517-0.37124 2.0063-0.19156 0.41011 0.11259 1.2832 0.50349 1.8543 0.83027 1.8297 1.0468 3.1304 2.5384 4.0402 4.6328 0.28193 0.64906 0.35309 0.9689 0.33307 1.4967-0.02424 0.63903-0.2558 1.2413-0.65444 1.7022-0.07799 0.09017-0.83219 0.84915-1.676 1.6866-1.3792 1.3689-1.5582 1.5385-1.7721 1.6791-0.80375 0.52852-1.7801 0.62835-2.6735 0.27332-0.54894-0.21812-1.4672-0.7044-1.633-0.86476-0.15503-0.14994-0.19437-0.25156-0.19444-0.50226-4.6e-5 -0.19626 0.0064-0.22979 0.06222-0.32448 0.14174-0.2403 0.35174-0.3654 0.61463-0.36619 0.19716-5.91e-4 0.24073 0.01543 0.59777 0.21973 0.34386 0.19677 0.86443 0.44979 1.1161 0.54245 0.16481 0.0607 0.24152 0.07491 0.4536 0.08412 0.29457 0.01277 0.51768-0.03473 0.76109-0.16207 0.1514-0.07921 0.6041-0.51305 2.408-2.3077 0.90935-0.90471 0.92951-0.9268 1.0233-1.1187 0.15026-0.3075 0.19567-0.60526 0.13896-0.91102-0.033241-0.17922-0.19144-0.56958-0.4138-1.0211-0.81355-1.6519-1.8179-2.725-3.3522-3.5817-0.43032-0.24028-1.1569-0.56451-1.4217-0.63443-0.3694-0.097538-0.77636-0.032183-1.1301 0.18148-0.079925 0.048277-0.66711 0.61325-1.6727 1.6094-1.4436 1.4301-1.5553 1.5463-1.6337 1.7009-0.17149 0.33775-0.21622 0.69294-0.12971 1.03 0.049739 0.19382 0.34619 0.82317 0.57083 1.2118 0.25968 0.44929 0.27057 0.47611 0.2715 0.66798 6.308e-4 0.13094-0.01179 0.20086-0.051257 0.28868-0.043782 0.09741-0.56616 0.62821-3.2762 3.3292l-3.2242 3.2133v2.1542h1.7309l0.00724-0.7315c0.00704-0.71186 0.00871-0.73474 0.061879-0.85189 0.063893-0.14084 0.21622-0.28933 0.36897-0.35969 0.1024-0.04716 0.14664-0.05015 0.84085-0.05674l0.73279-7e-3 0.013916-1.4836 0.061777-0.11666c0.074002-0.13974 0.21447-0.27151 0.36197-0.33955 0.10487-0.04837 0.13846-0.05001 1.1756-0.05744 1.0788-0.0077 1.2451 0.0015 1.4045 0.07677 0.1335 0.06314 0.26197 0.19113 0.32911 0.32788 0.05373 0.10946 0.06454 0.16101 0.06384 0.30468-0.0015 0.29568-0.14104 0.51305-0.40861 0.6362l-0.14476 0.06663-1.4448 0.01494v0.7001c0 0.64462-0.00368 0.7099-0.046419 0.82376-0.06028 0.16057-0.1724 0.28898-0.32672 0.37416l-0.12388 0.06839-1.5026 0.02304-0.011559 0.74878c-0.01114 0.72164-0.013448 0.7523-0.063715 0.84608-0.081799 0.15256-0.18268 0.25258-0.32508 0.32227l-0.13134 0.06428-1.7222 0.0044c-1.3657 0.0035-1.7421-0.0017-1.8181-0.02567z" fill-rule="evenodd" stroke-width="0"/>
 <path d="m2.3843 20.079c-0.11284-0.03421-0.19989-0.09137-0.29384-0.19294-0.19495-0.21078-0.17914-0.03875-0.18625-2.0262-0.00567-1.5832-0.00247-1.7758 0.030617-1.8396 0.052431-0.10105 0.59182-0.64803 3.6271-3.6781 1.4755-1.473 2.6859-2.6925 2.6896-2.7099 0.0037924-0.017441-0.091118-0.22746-0.21092-0.4667-0.38273-0.76432-0.4771-1.0853-0.47763-1.6242-1.618e-4 -0.17613 0.014819-0.4002 0.034172-0.5108 0.073809-0.42183 0.25342-0.85422 0.48042-1.1564 0.13344-0.17767 2.1709-2.2353 2.8857-2.9143 0.52922-0.5027 0.66751-0.61329 0.94043-0.75211 0.44585-0.22676 0.87735-0.31952 1.4036-0.30173 0.51175 0.017299 0.84952 0.11805 1.6775 0.50036 2.1657 1 3.6533 2.5002 4.7176 4.7577 0.33788 0.71664 0.43516 1.0463 0.45263 1.5336 0.02344 0.65358-0.12228 1.1793-0.47531 1.7148-0.11338 0.17199-2.0338 2.1179-2.9789 3.0185-0.51764 0.49323-0.65359 0.59756-0.98926 0.75918-0.62768 0.30224-1.2945 0.36402-1.9726 0.18276-0.54662-0.14612-1.7595-0.76522-1.9989-1.0203-0.12286-0.13091-0.15467-0.22625-0.15454-0.46334 6.9e-5 -0.14861 0.0095-0.18917 0.06741-0.28978 0.13955-0.24248 0.331-0.35403 0.60895-0.35481 0.17735-5e-4 0.18339 0.0015 0.46235 0.1499 0.46521 0.24756 1.1047 0.55681 1.2652 0.61174 0.20526 0.0703 0.63733 0.08754 0.86452 0.03449 0.35532-0.08298 0.37864-0.10273 1.9883-1.6837 1.3219-1.2983 1.6775-1.6709 1.7709-1.8551 0.15505-0.3061 0.2057-0.71871 0.12595-1.0258-0.085366-0.32867-0.52251-1.2353-0.85551-1.7744-0.72331-1.1709-1.6181-2.0267-2.8422-2.7183-0.47555-0.2687-1.2276-0.60314-1.5026-0.66826-0.30727-0.072744-0.70647-0.022732-1.0009 0.12539-0.17437 0.08773-0.74396 0.62856-2.2631 2.1489-1.0403 1.0412-1.0947 1.0998-1.1726 1.264-0.12675 0.26744-0.15936 0.42833-0.1469 0.72465 0.00902 0.21447 0.021933 0.28247 0.083187 0.43819 0.097618 0.24815 0.37769 0.81384 0.56851 1.1483 0.18184 0.31871 0.22152 0.42003 0.22135 0.56528-2.075e-4 0.16886-0.039767 0.26922-0.16694 0.42349-0.065213 0.07911-1.5263 1.5492-3.2468 3.2668l-3.1283 3.123v2.175h1.7268l0.015071-0.2455c0.0083-0.13503 0.015072-0.44936 0.015072-0.69852 0-0.54852 0.019068-0.63379 0.17933-0.80193 0.20916-0.21945 0.21093-0.21985 1.0532-0.23793 0.40449-0.0087 0.74198-0.0223 0.74997-0.03028 8e-3 -8e-3 0.018842-0.3434 0.024109-0.7454l0.00958-0.73092 0.059683-0.11067c0.068638-0.12728 0.19042-0.24438 0.33313-0.32032l0.099292-0.05284h1.1674c0.91343 0 1.1863 0.0066 1.2544 0.0307 0.1555 0.05485 0.30669 0.19515 0.38826 0.36027 0.06934 0.14037 0.07369 0.16299 0.06176 0.32032-0.02183 0.28766-0.13593 0.45634-0.39834 0.5889l-0.13871 0.07007-0.42767 3.85e-4c-0.23522 2.07e-4 -0.55902 0.0071-0.71956 0.01523l-0.29189 0.01484-0.03151 1.4331-0.06875 0.14257c-0.071518 0.14831-0.14339 0.22261-0.30623 0.31655-0.094442 0.05448-0.11017 0.05581-0.85027 0.07197l-0.75407 0.01647-0.016181 0.71691c-0.0089 0.3943-0.026087 0.75514-0.038195 0.80187-0.034575 0.13345-0.18068 0.29839-0.33863 0.38229l-0.13963 0.07417-1.7305-2e-3c-0.95184-0.0011-1.7566-0.0099-1.7885-0.01955z" fill="#2e3a59" fill-rule="evenodd" stroke-width="0"/>
 <path d="m14.732 7.9794c-0.46609-0.058167-0.87368-0.46012-0.95318-0.94-0.12652-0.76356 0.57927-1.4428 1.3347-1.2845 0.42533 0.089118 0.74411 0.37628 0.8676 0.78156 0.06364 0.2088 0.05235 0.53906-0.02522 0.73862-0.1853 0.47668-0.69546 0.77024-1.224 0.70428z" fill="#2e3a59" fill-rule="evenodd" stroke-width="0"/>
 <g transform="matrix(.47576 0 0 .47416 11.711 11.705)" fill="none" fill-rule="evenodd" stroke="#2e3a59" stroke-width="1.1507">
  <g stroke="#2e3a59" stroke-width="1.1507">
   <mask fill="#ffffff">
    <path d="m0 0h24v24h-24z"/>
   </mask>
   <path d="M 15.59,7 12,10.59 8.41,7 7,8.41 10.59,12 7,15.59 8.41,17 12,13.41 15.59,17 17,15.59 13.41,12 17,8.41 Z" fill="#2e3a59" fill-rule="nonzero" mask="url(#a)" stroke="#2e3a59" stroke-width="1.1507"/>
  </g>
 </g>
</svg>
