<svg width="24" height="24" version="1.1" viewBox="0 0 24 24" xmlns="http://www.w3.org/2000/svg" xmlns:xlink="http://www.w3.org/1999/xlink">
 <defs>
  <path id="a" d="M0 0H24V24H0z"/>
  <mask id="c" fill="#fff">
   <path d="m0 0h24v24h-24z"/>
  </mask>
 </defs>
 <g transform="translate(-.14634 6.0372)" fill-rule="evenodd">
  <mask id="b" fill="#ffffff">
   <use width="100%" height="100%" xlink:href="#a"/>
  </mask>
  <path d="m4 12c0 1.1 0.9 2 2 2s2-0.9 2-2-0.9-2-2-2-2 0.9-2 2zm12 0c0 1.1 0.9 2 2 2s2-0.9 2-2-0.9-2-2-2-2 0.9-2 2zm-4-2c1.1 0 2 0.9 2 2s-0.9 2-2 2-2-0.9-2-2 0.9-2 2-2z" fill="#2e3a59" mask="url(#b)"/>
 </g>
 <path transform="matrix(.65959 0 0 .65959 3.9385 .93098)" d="m13 7.83 3.59 3.58 1.41-1.41-6-6-6 6 1.41 1.41 3.59-3.58v12.17h2z" fill="#2e3a59" mask="url(#c)" stroke="#2e3a59" stroke-width="1.0855"/>
</svg>
