<svg width="24" height="24" version="1.1" viewBox="0 0 24 24" xmlns="http://www.w3.org/2000/svg" xmlns:xlink="http://www.w3.org/1999/xlink">
 <defs>
  <path id="a" d="M0 0H24V24H0z"/>
 </defs>
 <g fill-rule="evenodd">
  <mask id="b" fill="#fff">
   <use xlink:href="#a"/>
  </mask>
  <path d="M6.296 9.898l-.948.155C3.449 10.363 2 12.014 2 14c0 2.21 1.79 4 4 4h13c1.657 0 3-1.343 3-3 0-1.5-1.102-2.745-2.54-2.965l-1.316-.202-.322-1.291C17.172 7.932 14.809 6 12 6 9.757 6 7.8 7.23 6.768 9.06l-.472.838zm13.467.16C18.895 6.578 15.748 4 12 4 9.006 4 6.397 5.644 5.025 8.079 2.175 8.544 0 11.019 0 14c0 3.314 2.686 6 6 6h13c2.761 0 5-2.239 5-5 0-2.502-1.838-4.575-4.237-4.942-.579-2.32-.579-2.32 0 0z" fill="#2E3A59" mask="url(#b)"/>
 </g>
 <path d="m9.8539 16.413c-0.33842-0.07268-0.60881-0.3301-0.68631-0.65338-0.018725-0.07811-0.02242-0.13377-0.022486-0.33873l-7.94e-5 -0.24527c-0.00665 0.0012-4.301e-4 -2.827-4.301e-4 -2.827l0.0061-3.397 0.031846-0.090736c0.1037-0.29546 0.34817-0.51417 0.66163-0.5919 0.071233-0.017666 0.22885-0.019606 1.8709-0.023067l1.7931-0.00375 0.25416 0.24037c0.13979 0.1322 0.3052 0.28933 0.36758 0.34917 0.06239 0.05984 0.4388 0.41698 0.83648 0.79363l0.72306 0.68483-9.2e-5 2.6553c-5.6e-5 1.7996-0.0039 2.6791-0.01199 2.729-0.05218 0.32303-0.28104 0.58311-0.61164 0.69505l-0.10784 0.03652-2.5123 2e-3c-2.198 0.0016-2.5222-1.49e-4 -2.5917-0.01506zm5.0756-0.53805c0.07332-0.03454 0.13814-0.09779 0.17331-0.1691l0.02518-0.05105-2.19e-4 -1.4858c-1.21e-4 -0.8172-0.0014-1.975-0.0029-2.5729l-0.0026-1.0871-0.64366 0.0034c-0.71378 0.0038-0.69966 5e-3 -0.8469-0.07209-0.08813-0.04615-0.2057-0.16429-0.25381-0.25509-0.06706-0.12655-0.06993-0.1602-0.07016-0.82073l-1.96e-4 -0.59656-1.6645 0.00536c-1.6373 0.00529-1.6655 0.00573-1.7265 0.028366-0.081892 0.030364-0.17084 0.1183-0.19684 0.19459-0.017445 0.051197-0.019014 0.19164-0.019014 1.7039-5.1e-6 1.6484-2.7e-6 3.2968-2.7e-6 4.9453l0.034683 0.0694c0.046393 0.09284 0.13011 0.15946 0.23185 0.18449 0.018715 0.0046 1.1288 0.0076 2.4669 0.0066l2.4329-0.0016z" fill="#2e3a59" stroke="#2e3a59" stroke-width=".902"/>
</svg>
