<svg width="24" height="24" version="1.1" viewBox="0 0 24 24" xmlns="http://www.w3.org/2000/svg" xmlns:xlink="http://www.w3.org/1999/xlink">
 <defs>
  <path id="b" d="M0 0H24V24H0z"/>
 </defs>
 <g fill-rule="evenodd">
  <mask id="a" fill="#fff">
   <use xlink:href="#b"/>
  </mask>
  <path d="M2 18c0 2.206 1.794 4 4 4 2.199 0 3.987-1.784 3.998-3.98H10V16h4v2.039h.004C14.025 20.226 15.808 22 18 22c2.206 0 4-1.794 4-4s-1.794-4-4-4h-2v-4h2c2.206 0 4-1.794 4-4s-1.794-4-4-4-4 1.794-4 4v2h-4V5.98h-.002C9.987 3.784 8.199 2 6 2 3.794 2 2 3.794 2 6s1.794 4 4 4h2v4H6c-2.206 0-4 1.794-4 4zm4 2c-1.121 0-2-.878-2-2 0-1.122.879-2 2-2h2v2c0 1.122-.879 2-2 2zm14-2c0 1.122-.879 2-2 2s-2-.878-2-2v-2h2c1.121 0 2 .878 2 2zM18 4c1.121 0 2 .878 2 2 0 1.122-.879 2-2 2h-2V6c0-1.122.879-2 2-2zM4 6c0-1.122.879-2 2-2s2 .878 2 2v2H6c-1.121 0-2-.878-2-2zm10 4v4h-4v-4h4z" fill="#2E3A59" mask="url(#a)"/>
 </g>
</svg>
