<svg width="24" height="24" version="1.1" viewBox="0 0 24 24" xmlns="http://www.w3.org/2000/svg" xmlns:xlink="http://www.w3.org/1999/xlink">
 <defs>
  <path id="a" d="M0 0H24V24H0z"/>
  <mask id="d" fill="#fff">
   <path d="m0 0h24v24h-24z"/>
  </mask>
  <mask id="c" fill="#ffffff">
   <use width="100%" height="100%" xlink:href="#a"/>
  </mask>
  <mask id="b" fill="#ffffff">
   <use width="100%" height="100%" xlink:href="#a"/>
  </mask>
 </defs>
 <g transform="matrix(0 -.70464 .70464 0 8.0703 26.839)" fill-rule="evenodd">
  <mask fill="#ffffff">
   <path d="m0 0h24v24h-24z"/>
  </mask>
  <path d="m10 7v6h6.17l-2.58-2.59 1.41-1.41 5 5-5 5-1.41-1.41 2.58-2.59h-8.17v-8z" fill="#2e3a59" fill-rule="nonzero" mask="url(#d)"/>
 </g>
 <path transform="matrix(.70707 0 0 .70707 12.354 -1.2083)" d="m12 8c0 2.21-1.79 4-4 4s-4-1.79-4-4 1.79-4 4-4 4 1.79 4 4zm-2 0c0 1.105-0.895 2-2 2s-2-0.895-2-2 0.895-2 2-2 2 0.895 2 2zm4 11c0-3.314-2.686-6-6-6s-6 2.686-6 6h2c0-2.21 1.79-4 4-4s4 1.79 4 4z" fill="#2e3a59" fill-rule="evenodd" mask="url(#c)" stroke="#2e3a59" stroke-width=".71704"/>
 <path transform="matrix(.70707 0 0 .70707 .64671 9.1388)" d="m12 8c0 2.21-1.79 4-4 4s-4-1.79-4-4 1.79-4 4-4 4 1.79 4 4zm-2 0c0 1.105-0.895 2-2 2s-2-0.895-2-2 0.895-2 2-2 2 0.895 2 2zm4 11c0-3.314-2.686-6-6-6s-6 2.686-6 6h2c0-2.21 1.79-4 4-4s4 1.79 4 4z" fill="#2e3a59" fill-rule="evenodd" mask="url(#b)" stroke="#2e3a59" stroke-width=".71704"/>
 <path d="m2.4776 2.1051 19.972 19.972" fill="none" stroke="#2e3a59" stroke-width="2"/>
</svg>
