<svg width="24" height="24" version="1.1" viewBox="0 0 24 24" xmlns="http://www.w3.org/2000/svg" xmlns:xlink="http://www.w3.org/1999/xlink">
 <defs>
  <path id="a" d="M0 0H24V24H0z"/>
 </defs>
 <g fill-rule="evenodd">
  <mask id="b" fill="#fff">
   <use xlink:href="#a"/>
  </mask>
  <path d="M10.75 22H4.917c-1.167 0-2.084-.95-2.084-2.083v-9.7C2.282 9.822 2 9.216 2 8.599c0-.313.074-.625.24-.94.888-1.582 1.795-3.153 2.722-4.712C5.347 2.333 5.97 2 6.666 2c.529 0 .81.17 1.204.4.552.32 7.5 4.46 10.427 6.2.072.043 2.805 1.657 2.874 1.704.552.409.829.998.829 1.612 0 .312-.077.62-.246.942-.887 1.582-1.794 3.153-2.72 4.712-.481.767-1.346 1.075-2.08.907-.327.195-4.856 3.125-5.21 3.306-.345.177-.636.217-.994.217zM4.5 13.03v6.887c0 .228.184.416.417.416H8.74c-1.433-2.421-2.848-4.855-4.24-7.302zM5.838 12c.044.076 4.734 8.163 4.772 8.215.09.116.25.15.38.082.09-.051 1.502-.955 4.233-2.71-.532-.314-6.786-4.042-9.385-5.588.03.051.03.051 0 0zm.55-8.192c-.761 1.214-2.666 4.605-2.696 4.675-.059.143-.007.305.124.387.167.1 13.352 7.956 13.48 7.976.127.018.248-.038.315-.145.785-1.32 2.672-4.625 2.693-4.668.058-.143.006-.306-.125-.387-.167-.1-13.319-7.916-13.408-7.955-.15-.062-.304-.002-.384.117-.507.81-.507.81 0 0zm1.297 2.246c.92 0 1.667.748 1.667 1.667 0 .92-.747 1.666-1.667 1.666s-1.667-.746-1.667-1.666c0-.92.747-1.667 1.667-1.667.613 0 .613 0 0 0z" fill="#2E3A59" mask="url(#b)"/>
 </g>
</svg>
