<svg xmlns="http://www.w3.org/2000/svg" xmlns:xlink="http://www.w3.org/1999/xlink" width="24" height="24" viewBox="0 0 24 24">
    <defs>
        <path id="wqol0zdx2a" d="M0 0H24V24H0z"/>
    </defs>
    <g fill="none" fill-rule="evenodd">
        <g>
            <mask id="1emfdixwvb" fill="#fff">
                <use xlink:href="#wqol0zdx2a"/>
            </mask>
            <path fill="#2E3A59" d="M16.028 5.087c-.264-.154-.537-.294-.819-.417l-.412-1.884c-.1-.459-.507-.786-.977-.786h-3.64c-.47 0-.877.327-.977.786L8.791 4.67c-.266.116-.524.247-.773.39-.262.15-.517.316-.762.496L5.42 4.97c-.448-.143-.934.046-1.17.453L2.43 8.576c-.234.407-.154.923.193 1.24l1.425 1.298c-.033.295-.049.591-.048.886 0 .295.015.59.048.886l-1.425 1.299c-.347.316-.427.832-.192 1.239l1.82 3.152c.235.407.721.596 1.17.453l1.836-.585c.248.183.505.35.77.5.247.142.503.271.765.386l.412 1.884c.1.459.507.786.977.786h3.64c.47 0 .877-.327.977-.786l.412-1.884c.279-.122.55-.26.81-.411.25-.145.491-.303.725-.475l1.837.585c.448.143.934-.046 1.17-.453l1.82-3.152c.234-.407.154-.923-.193-1.24l-1.425-1.298c.033-.296.049-.592.048-.887 0-.295-.016-.59-.048-.885l1.425-1.299c.347-.316.427-.832.192-1.239l-1.82-3.152c-.235-.407-.721-.596-1.17-.453l-1.836.585c-.231-.17-.47-.326-.716-.47-.176-.102-.176-.102 0 0zM12 16c2.21 0 4-1.79 4-4s-1.79-4-4-4-4 1.79-4 4 1.79 4 4 4c1.473 0 1.473 0 0 0z" mask="url(#1emfdixwvb)"/>
        </g>
    </g>
</svg>
