<svg width="24" height="24" version="1.1" viewBox="0 0 24 24" xmlns="http://www.w3.org/2000/svg" xmlns:xlink="http://www.w3.org/1999/xlink">
 <defs>
  <path id="a" d="M0 0H24V24H0z"/>
  <mask id="c" fill="#ffffff">
   <use width="100%" height="100%" xlink:href="#a"/>
  </mask>
  <mask id="b" fill="#ffffff">
   <use width="100%" height="100%" xlink:href="#a"/>
  </mask>
 </defs>
 <path transform="translate(-.65176 3.6542)" d="m12 8c0 2.21-1.79 4-4 4s-4-1.79-4-4 1.79-4 4-4 4 1.79 4 4zm-2 0c0 1.105-0.895 2-2 2s-2-0.895-2-2 0.895-2 2-2 2 0.895 2 2zm4 11c0-3.314-2.686-6-6-6s-6 2.686-6 6h2c0-2.21 1.79-4 4-4s4 1.79 4 4z" fill="#2e3a59" fill-rule="evenodd" mask="url(#c)"/>
 <path transform="translate(9.304 -2.7591)" d="m12 8c0 2.21-1.79 4-4 4s-4-1.79-4-4 1.79-4 4-4 4 1.79 4 4zm-2 0c0 1.105-0.895 2-2 2s-2-0.895-2-2 0.895-2 2-2 2 0.895 2 2zm4 11c0-3.314-2.686-6-6-6s-6 2.686-6 6h2c0-2.21 1.79-4 4-4s4 1.79 4 4z" fill="#2e3a59" fill-rule="evenodd" mask="url(#b)"/>
</svg>
