<svg xmlns="http://www.w3.org/2000/svg" xmlns:xlink="http://www.w3.org/1999/xlink" width="24" height="24" viewBox="0 0 24 24">
    <defs>
        <path id="ch8vioc3oa" d="M0 0H24V24H0z"/>
    </defs>
    <g fill="none" fill-rule="evenodd">
        <g>
            <mask id="nteov5ev2b" fill="#fff">
                <use xlink:href="#ch8vioc3oa"/>
            </mask>
            <path fill="#2E3A59" d="M8.032 14.554l6.522-6.522C14.202 7.436 14 6.742 14 6c0-2.21 1.79-4 4-4s4 1.79 4 4-1.79 4-4 4c-.742 0-1.436-.202-2.032-.554l-6.522 6.522c.352.596.554 1.29.554 2.032 0 2.21-1.79 4-4 4s-4-1.79-4-4 1.79-4 4-4c.742 0 1.436.202 2.032.554zM6 20c1.105 0 2-.895 2-2s-.895-2-2-2-2 .895-2 2 .895 2 2 2c.736 0 .736 0 0 0zM20 6c0 1.105-.895 2-2 2s-2-.895-2-2 .895-2 2-2 2 .895 2 2c0 .736 0 .736 0 0z" mask="url(#nteov5ev2b)"/>
        </g>
    </g>
</svg>
