<svg width="24" height="24" version="1.1" viewBox="0 0 24 24" xmlns="http://www.w3.org/2000/svg" xmlns:xlink="http://www.w3.org/1999/xlink">
 <defs>
  <path id="b" d="M0 0H24V24H0z"/>
 </defs>
 <g fill-rule="evenodd">
  <mask id="a" fill="#fff">
   <use xlink:href="#b"/>
  </mask>
  <path d="M15 20v2H9v-2h6zm4-11c0-3.859-3.141-7-7-7S5 5.141 5 9c0 2.285 1.067 3.528 2.101 4.73.358.418.729.851 1.084 1.349.144.206.38.996.591 1.921L9 19h6l.226-2c.213-.927.45-1.719.593-1.925.352-.503.726-.94 1.087-1.363C17.936 12.506 19 11.259 19 9zm-5.824 8h-2.351c-.209-1.002-.572-2.463-1.011-3.08-.407-.572-.826-1.061-1.196-1.492C7.644 11.294 7 10.544 7 9c0-2.757 2.243-5 5-5s5 2.243 5 5c0 1.521-.643 2.274-1.615 3.413-.373.438-.796.933-1.203 1.512-.434.617-.796 2.075-1.006 3.075z" fill="#2E3A59" mask="url(#a)"/>
 </g>
</svg>
