<svg xmlns="http://www.w3.org/2000/svg" xmlns:xlink="http://www.w3.org/1999/xlink" width="24" height="24" viewBox="0 0 24 24">
    <defs>
        <path id="b1fk2ealxa" d="M0 0H24V24H0z"/>
    </defs>
    <g fill="none" fill-rule="evenodd">
        <g>
            <mask id="7ep7486hnb" fill="#fff">
                <use xlink:href="#b1fk2ealxa"/>
            </mask>
            <path fill="#2E3A59" d="M12 2C6.48 2 2 6.48 2 12s4.48 10 10 10 10-4.48 10-10S17.52 2 12 2c-3.68 0-3.68 0 0 0zm-1 17v-2h2v2h-2zm3.17-6.83l.9-.92c.57-.57.93-1.37.93-2.25 0-2.21-1.79-4-4-4S8 6.79 8 9h2c0-1.1.9-2 2-2s2 .9 2 2c0 .55-.22 1.05-.59 1.41l-1.24 1.26C11.45 12.4 11 13.4 11 14.5v.5h2c0-1.5.45-2.1 1.17-2.83z" mask="url(#7ep7486hnb)"/>
        </g>
    </g>
</svg>
