<?xml version="1.0" encoding="utf-8"?>
<!-- Generator: Adobe Illustrator 25.3.0, SVG Export Plug-In . SVG Version: 6.00 Build 0)  -->
<svg version="1.1" id="Ebene_1" xmlns="http://www.w3.org/2000/svg" xmlns:xlink="http://www.w3.org/1999/xlink" x="0px" y="0px"
	 viewBox="0 0 24 24" style="enable-background:new 0 0 24 24;" xml:space="preserve">
<style type="text/css">
	.st0{fill:#2E3A59;}
	.st1{fill:none;stroke:#2E3A59;stroke-width:2;stroke-miterlimit:10;}
</style>
<g>
	<g>
		<path class="st0" d="M6.4,6.3L4.5,4.6L4,11l5.8-1.3l-2-1.9C8.9,6.7,10.3,6,12,6c3.3,0,6,2.7,6,6s-2.7,6-6,6c-2.6,0-4.8-1.7-5.7-4
			h-2c0.9,3.5,4,6,7.7,6c4.4,0,8-3.6,8-8s-3.6-8-8-8C9.8,4,7.8,4.9,6.4,6.3z"/>
	</g>
</g>
<polyline class="st1" points="14.7,15 11.9,12.1 11.9,7.8 "/>
</svg>
