<svg width="24" height="24" version="1.1" viewBox="0 0 24 24" xmlns="http://www.w3.org/2000/svg" xmlns:xlink="http://www.w3.org/1999/xlink">
 <defs>
  <path id="a" d="M0 0H24V24H0z"/>
 </defs>
 <g fill-rule="evenodd">
  <mask id="b" fill="#fff">
   <use xlink:href="#a"/>
  </mask>
  <path d="M12 16c-2.21 0-4-1.79-4-4s1.79-4 4-4 4 1.79 4 4-1.79 4-4 4zm0-2c-1.105 0-2-.895-2-2s.895-2 2-2 2 .895 2 2-.895 2-2 2zM4.25 5.424c.235-.407.721-.596 1.17-.453l1.836.585c.245-.18.5-.346.762-.496.25-.143.507-.274.773-.39l.412-1.884c.1-.459.507-.786.977-.786h3.64c.47 0 .877.327.977.786l.412 1.884c.282.123.555.263.82.417.245.143.484.299.715.469l1.837-.585c.448-.143.934.046 1.17.453l1.82 3.152c.234.407.154.923-.193 1.24l-1.425 1.298c.032.295.049.59.048.885 0 .295-.015.591-.048.887l1.425 1.299c.347.316.427.832.192 1.239l-1.82 3.152c-.235.407-.721.596-1.17.453l-1.836-.585c-.234.172-.476.33-.725.475-.26.152-.531.29-.81.411l-.412 1.884c-.1.459-.507.786-.977.786h-3.64c-.47 0-.877-.327-.977-.786l-.412-1.884c-.262-.115-.518-.244-.765-.385-.265-.151-.522-.318-.77-.5l-1.837.584c-.448.143-.934-.046-1.17-.453l-1.82-3.152c-.234-.407-.154-.923.193-1.24l1.425-1.298c-.033-.295-.049-.591-.048-.886 0-.295.015-.59.048-.886L2.622 9.815c-.347-.316-.427-.832-.192-1.239l1.82-3.152zm9.223.668l.933.41c.211.092.416.196.614.312l.003.002c.184.107.363.224.536.351l.82.604 2.042-.65 1.015 1.758-1.583 1.443.112 1.012c.024.221.036.442.036.663 0 .225-.011.447-.036.669l-.112 1.012 1.583 1.443-1.015 1.758-2.041-.65-.821.604c-.175.129-.356.247-.543.355-.199.116-.401.22-.61.31l-.933.41L13.015 20h-2.03l-.458-2.092-.933-.41c-.196-.085-.388-.182-.573-.288l-.003-.002c-.199-.113-.392-.239-.577-.375l-.82-.604-2.042.65-1.015-1.758 1.583-1.443-.112-1.012c-.025-.221-.037-.443-.036-.664 0-.225.011-.447.036-.668l.112-1.012-1.583-1.443L5.58 7.121l2.041.65.821-.604c.183-.135.374-.259.57-.371l.004-.002c.187-.108.38-.206.58-.293l.932-.409L10.985 4h2.03l.458 2.092z" fill="#2E3A59" mask="url(#b)"/>
 </g>
</svg>
