<svg xmlns="http://www.w3.org/2000/svg" xmlns:xlink="http://www.w3.org/1999/xlink" width="24" height="24" viewBox="0 0 24 24">
    <defs>
        <path id="v2ygiekc4a" d="M0 0H24V24H0z"/>
    </defs>
    <g fill="none" fill-rule="evenodd">
        <g>
            <mask id="0eec7gowmb" fill="#fff">
                <use xlink:href="#v2ygiekc4a"/>
            </mask>
            <path fill="#2E3A59" d="M9 12c0 1.642 1.358 3 3 3 1.641 0 3-1.358 3-3 0-1.641-1.359-3-3-3-1.642 0-3 1.359-3 3zm-6.895-.316L2 12l.104.316C2.126 12.383 4.408 19 12 19c7.592 0 9.874-6.617 9.895-6.684L22 12l-.104-.316C21.874 11.617 19.592 5 12 5c-7.592 0-9.874 6.617-9.895 6.684zM4.117 12c.5-1.158 2.564-5 7.883-5 5.322 0 7.384 3.846 7.883 5-.5 1.158-2.564 5-7.883 5-5.322 0-7.384-3.846-7.883-5z" mask="url(#0eec7gowmb)"/>
        </g>
    </g>
</svg>
