<svg width="24" height="24" version="1.1" viewBox="0 0 24 24" xmlns="http://www.w3.org/2000/svg" xmlns:xlink="http://www.w3.org/1999/xlink">
 <defs>
  <path id="c" d="M0 0H24V24H0z"/>
  <mask id="a" fill="#fff">
   <path d="m0 0h24v24h-24z"/>
  </mask>
 </defs>
 <g fill-rule="evenodd">
  <mask id="b" fill="#fff">
   <use xlink:href="#c"/>
  </mask>
  <path d="M5 3c-1.103 0-2 .897-2 2v14c0 1.103.897 2 2 2h14c1.103 0 2-.897 2-2V5c0-1.103-.897-2-2-2H5zm14 5H5V5h14v3zM5 10h14.001l.001 9H5v-9z" fill="#2E3A59" mask="url(#b)"/>
 </g>
 <path transform="matrix(.62591 0 0 .67581 4.4891 4.6406)" d="m6 11v2h-2v-2zm0 5v2h-2v-2zm14-5v2h-12v-2zm0 5v2h-12v-2z" fill="#2e3a59" mask="url(#a)" stroke="#2e3a59" stroke-width=".6919"/>
</svg>
