<svg width="41" height="33" version="1.1" viewBox="0 0 41 33" xmlns="http://www.w3.org/2000/svg">
 <g transform="matrix(1.1313 0 0 1.2759 8.3382 1.9192)" fill="none" fill-rule="evenodd">
  <path transform="matrix(.88392 0 0 .78373 -7.3703 -1.5041)" d="m10.592 1.8125c-1.2782 0-2.3477 1.2069-2.3477 2.6484 0 3.1235 1.187 6.1048 3.2559 8.1797l3.6797 3.6855c0.31352 0.31403 0.49414 0.77186 0.49414 1.248v9.2363c0 2.0226 2.16 3.3224 3.6523 2.1992l0.80078-0.60156a10 10 0 0 1-0.07617-0.08984 10 10 0 0 1-0.16602-0.20703 10 10 0 0 1-0.16211-0.21094 10 10 0 0 1-0.15625-0.21484 10 10 0 0 1-0.15039-0.2207 10 10 0 0 1-0.14453-0.22266 10 10 0 0 1-0.13867-0.22656 10 10 0 0 1-0.13086-0.23242 10 10 0 0 1-0.12695-0.23242 10 10 0 0 1-0.11914-0.23828 10 10 0 0 1-0.11328-0.24023 10 10 0 0 1-0.10742-0.24414 10 10 0 0 1-0.10156-0.24609 10 10 0 0 1-0.09375-0.24805 10 10 0 0 1-0.08594-0.25195 10 10 0 0 1-0.08008-0.25391 10 10 0 0 1-0.07422-0.25391 10 10 0 0 1-0.06836-0.25781 10 10 0 0 1-0.05859-0.25976 10 10 0 0 1-0.05469-0.25977 10 10 0 0 1-0.04492-0.26172 10 10 0 0 1-0.03906-0.26367 10 10 0 0 1-0.0332-0.26367 10 10 0 0 1-0.02539-0.26367 10 10 0 0 1-0.01758-0.26562 10 10 0 0 1-0.01172-0.26562 10 10 0 0 1-0.0039-0.26562 10 10 0 0 1 0-0.01953 10 10 0 0 1 0.0039-0.26562 10 10 0 0 1 0.0098-0.26562 10 10 0 0 1 0.01953-0.26562 10 10 0 0 1 0.02344-0.26562 10 10 0 0 1 0.03125-0.26367 10 10 0 0 1 0.03906-0.26367 10 10 0 0 1 0.04687-0.26172 10 10 0 0 1 0.05273-0.25977 10 10 0 0 1 0.05859-0.25976 10 10 0 0 1 0.06641-0.25781 10 10 0 0 1 0.07422-0.25586 10 10 0 0 1 0.08008-0.25195 10 10 0 0 1 0.08594-0.25195 10 10 0 0 1 0.09375-0.25 10 10 0 0 1 0.09961-0.24609 10 10 0 0 1 0.10742-0.24219 10 10 0 0 1 0.05859-0.125v-0.10156c0-1.4479-0.54941-2.8291-1.5098-3.791l-3.6797-3.6875c-1.2505-1.2541-1.9267-3.0183-2.0996-4.8789h18.191c-0.17284 1.8612-0.84813 3.6246-2.0996 4.8789l-2.1094 2.1133a10 10 0 0 1 0.22656-0.05273 10 10 0 0 1 0.25977-0.05273 10 10 0 0 1 0.26172-0.04687 10 10 0 0 1 0.26367-0.03906 10 10 0 0 1 0.26367-0.03125 10 10 0 0 1 0.26562-0.02539 10 10 0 0 1 0.26367-0.01758 10 10 0 0 1 0.26562-0.01172 10 10 0 0 1 0.26562-0.0039 10 10 0 0 1 0.01953 0 10 10 0 0 1 0.26562 0.0039 10 10 0 0 1 0.26563 0.0098 10 10 0 0 1 0.26562 0.01758 10 10 0 0 1 0.26563 0.02539 10 10 0 0 1 0.26367 0.03125 10 10 0 0 1 0.26367 0.03906 10 10 0 0 1 0.26172 0.04492 10 10 0 0 1 0.22852 0.04687c1.82-2.0457 2.9336-4.7699 2.9336-7.6855 0-1.4416-1.0695-2.6484-2.3477-2.6484z" color="#000000" color-rendering="auto" dominant-baseline="auto" fill="#2e3a59" fill-rule="evenodd" image-rendering="auto" shape-rendering="auto" solid-color="#000000" stop-color="#000000" style="font-feature-settings:normal;font-variant-alternates:normal;font-variant-caps:normal;font-variant-east-asian:normal;font-variant-ligatures:normal;font-variant-numeric:normal;font-variant-position:normal;font-variation-settings:normal;inline-size:0;isolation:auto;mix-blend-mode:normal;shape-margin:0;shape-padding:0;text-decoration-color:#000000;text-decoration-line:none;text-decoration-style:solid;text-indent:0;text-orientation:mixed;text-transform:none;white-space:normal"/>
 </g>
 <path d="m27.377 14.291c-4.1334 0-7.4993 3.3674-7.4993 7.5007s3.3659 7.4993 7.4993 7.4993 7.5007-3.3659 7.5007-7.4993-3.3674-7.5007-7.5007-7.5007zm0 1.4978c1.1968-1e-6 2.3071 0.35121 3.2418 0.95086l-7.8943 8.8511c-0.84401-1.0337-1.3504-2.3554-1.3504-3.799 0-3.324 2.679-6.0029 6.0029-6.0029zm4.6526 2.2039c0.84401 1.0337 1.3504 2.3554 1.3504 3.799 0 3.324-2.679 6.0029-6.0029 6.0029-1.1968 0-2.3071-0.35121-3.2418-0.95086z" color="#000000" color-rendering="auto" dominant-baseline="auto" fill="#2e3a59" fill-rule="evenodd" image-rendering="auto" shape-rendering="auto" solid-color="#000000" stop-color="#000000" stroke="#2e3a59" stroke-width="1.098" style="font-feature-settings:normal;font-variant-alternates:normal;font-variant-caps:normal;font-variant-east-asian:normal;font-variant-ligatures:normal;font-variant-numeric:normal;font-variant-position:normal;font-variation-settings:normal;inline-size:0;isolation:auto;mix-blend-mode:normal;shape-margin:0;shape-padding:0;text-decoration-color:#000000;text-decoration-line:none;text-decoration-style:solid;text-indent:0;text-orientation:mixed;text-transform:none;white-space:normal"/>
 <g transform="rotate(-48.276)">
  <path d="m1 52.238v3.791h18.191v-3.791h-18.191zm1.291 1.291h15.609v1.209h-15.609v-1.209z" color="#000000" color-rendering="auto" dominant-baseline="auto" fill="none" image-rendering="auto" shape-rendering="auto" solid-color="#000000" stop-color="#000000" style="font-feature-settings:normal;font-variant-alternates:normal;font-variant-caps:normal;font-variant-east-asian:normal;font-variant-ligatures:normal;font-variant-numeric:normal;font-variant-position:normal;font-variation-settings:normal;inline-size:0;isolation:auto;mix-blend-mode:normal;shape-margin:0;shape-padding:0;text-decoration-color:#000000;text-decoration-line:none;text-decoration-style:solid;text-indent:0;text-orientation:mixed;text-transform:none;white-space:normal"/>
 </g>
</svg>
