<svg width="24" height="24" version="1.1" viewBox="0 0 24 24" xmlns="http://www.w3.org/2000/svg" xmlns:xlink="http://www.w3.org/1999/xlink">
 <defs>
  <path id="b" d="M0 0H24V24H0z"/>
 </defs>
 <g fill-rule="evenodd">
  <mask id="a" fill="#fff">
   <use xlink:href="#b"/>
  </mask>
  <path d="M9 2c-1.103 0-2 .897-2 2v1H3v2h2v13c0 1.103.897 2 2 2h10c1.103 0 2-.897 2-2V7h2V5h-4V4c0-1.103-.897-2-2-2H9zm6 2v1H9V4h6zM7 20V7h10v13H7zm4-11v9H9V9h2zm4 0v9h-2V9h2z" fill="#2E3A59" mask="url(#a)"/>
 </g>
</svg>
