<?xml version="1.0" encoding="utf-8"?>
<!-- Generator: Adobe Illustrator 25.2.3, SVG Export Plug-In . SVG Version: 6.00 Build 0)  -->
<svg version="1.1" id="Ebene_1" xmlns="http://www.w3.org/2000/svg" xmlns:xlink="http://www.w3.org/1999/xlink" x="0px" y="0px"
	 viewBox="0 0 41 33" style="enable-background:new 0 0 41 33;" xml:space="preserve">
<style type="text/css">
	.st0{fill:none;stroke:#2E3A59;stroke-width:2.5;}
</style>
<g transform="matrix(1.1313 0 0 1.2759 8.3382 2.3188)">
	<path class="st0" d="M19.5,1.2H2C1.6,1.2,1.2,1.6,1.2,2c0,2.1,0.9,4,2.4,5.4l3.3,2.9c0.6,0.5,0.9,1.2,0.9,2v7.2
		c0,0.6,0.7,0.9,1.2,0.6l4.4-2.9c0.2-0.1,0.3-0.4,0.3-0.6v-4.3c0-0.8,0.3-1.5,0.9-2l3.3-2.9C19.4,6,20.2,4.1,20.2,2
		C20.2,1.6,19.9,1.2,19.5,1.2z"/>
</g>
<path class="st0" d="M35.4,25.4h-7.9c-0.1,0-0.2-0.1-0.2-0.2l0,0c0-0.1,0.1-0.2,0.2-0.2h7.9c0.1,0,0.2,0.1,0.2,0.2l0,0
	C35.6,25.3,35.6,25.4,35.4,25.4z"/>
<path class="st0" d="M31.2,29.1v-7.9c0-0.1,0.1-0.2,0.2-0.2l0,0c0.1,0,0.2,0.1,0.2,0.2v7.9c0,0.1-0.1,0.2-0.2,0.2l0,0
	C31.3,29.3,31.2,29.3,31.2,29.1z"/>
</svg>
