<svg width="24" height="24" version="1.1" viewBox="0 0 24 24" xmlns="http://www.w3.org/2000/svg" xmlns:xlink="http://www.w3.org/1999/xlink">
 <defs>
  <path id="a" d="M0 0H24V24H0z"/>
 </defs>
 <g fill-rule="evenodd">
  <mask id="b" fill="#fff">
   <use xlink:href="#a"/>
  </mask>
  <path d="m2 12c0-5.52 4.48-10 10-10s10 4.48 10 10-4.48 10-10 10-10-4.48-10-10zm11 4v2h-2v-2h2zm-1 4c-4.41 0-8-3.59-8-8s3.59-8 8-8 8 3.59 8 8-3.59 8-8 8c-2.94 0-2.94 0 0 0zm-4-10c0-2.21 1.79-4 4-4s4 1.79 4 4c0 1.283-0.79 1.973-1.56 2.646-0.728 0.637-1.44 1.259-1.44 2.354h-2c0-1.821 0.942-2.543 1.77-3.178 0.65-0.498 1.23-0.943 1.23-1.822 0-1.1-0.9-2-2-2s-2 0.9-2 2h-2z" fill="#2E3A59" mask="url(#b)"/>
 </g>
</svg>
