<svg width="24" height="24" version="1.1" viewBox="0 0 24 24" xmlns="http://www.w3.org/2000/svg" xmlns:xlink="http://www.w3.org/1999/xlink">
 <defs>
  <path id="b" d="M0 0H24V24H0z"/>
 </defs>
 <g fill-rule="evenodd">
  <mask id="a" fill="#fff">
   <use xlink:href="#b"/>
  </mask>
  <path d="m7 13v-2h6.17l-2.58-2.59 1.41-1.41 5 5-5 5-1.41-1.41 2.58-2.59h-6.17zm-5-1c0-5.523 4.477-10 10-10s10 4.477 10 10-4.477 10-10 10-10-4.477-10-10zm2 0c0-4.418 3.582-8 8-8s8 3.582 8 8-3.582 8-8 8-8-3.582-8-8z" fill="#2E3A59" mask="url(#a)"/>
 </g>
 <path d="m11.198 21.954c-1.6696-0.13713-3.2803-0.69323-4.6759-1.6144-2.0984-1.385-3.5792-3.4594-4.1925-5.8731-0.41924-1.65-0.41924-3.2832 0-4.9332 0.28481-1.1209 0.71179-2.0787 1.3626-3.0567 0.39343-0.59121 0.74323-1.0174 1.2551-1.5293 1.7055-1.7055 3.8846-2.7085 6.308-2.9034 1.8651-0.14996 3.876 0.28357 5.5265 1.1915 0.4322 0.23774 1.0955 0.68288 1.4981 1.0054 0.42678 0.34188 1.1373 1.0524 1.4792 1.4792 1.286 1.6053 2.032 3.4851 2.1969 5.5353 0.13073 1.6259-0.1789 3.3598-0.87199 4.883-0.74767 1.6432-1.9805 3.1014-3.485 4.122-1.8754 1.2722-4.1628 1.8775-6.401 1.6936zm1.9521-2.0241c0.86533-0.12825 1.585-0.35241 2.3758-0.74004 1.6182-0.79318 2.8706-2.0456 3.664-3.6641 0.38766-0.79077 0.60688-1.4946 0.74472-2.3909 0.05283-0.34356 0.06516-0.55824 0.06516-1.1349 0-0.78871-0.05112-1.2363-0.21953-1.9218-0.35152-1.431-1.1414-2.806-2.2002-3.83-1.2472-1.2063-2.7624-1.9402-4.5359-2.1969-0.54562-0.078991-1.6168-0.071961-2.1791 0.014303-0.91035 0.13966-1.6066 0.3584-2.4212 0.76072-1.6026 0.7915-2.8477 2.0404-3.6319 3.6431-0.38999 0.79702-0.60866 1.4987-0.74661 2.3957-0.093117 0.60551-0.093117 1.6644 0 2.2699 0.13784 0.89635 0.35706 1.6001 0.74472 2.3909 0.79375 1.6191 2.0498 2.8749 3.664 3.6632 0.9377 0.4579 1.834 0.70821 2.8724 0.80218 0.42555 0.03851 1.3401 0.0075 1.8035-0.06121z" fill="#c9c9c9" fill-rule="evenodd" stroke-linecap="round" stroke-width=".022335"/>
 <path d="m11.296 16.275-0.68842-0.68842 2.5873-2.5879h-6.1889v-1.9975h6.1889l-2.5875-2.588 1.3925-1.3915 4.9782 4.9782-2.4816 2.4817c-1.3649 1.365-2.4885 2.4817-2.4969 2.4817s-0.32507-0.30979-0.7037-0.68842z" fill="#c9c9c9" fill-rule="evenodd" stroke-linecap="round" stroke-width=".022335"/>
</svg>
