<svg width="24" height="24" version="1.1" viewBox="0 0 24 24" xmlns="http://www.w3.org/2000/svg" xmlns:xlink="http://www.w3.org/1999/xlink">
 <defs>
  <path id="b" d="M0 0H24V24H0z"/>
 </defs>
 <g fill-rule="evenodd">
  <mask id="a" fill="#fff">
   <use xlink:href="#b"/>
  </mask>
  <path d="M5 3c-1.103 0-2 .897-2 2v14c0 1.103.897 2 2 2h14c1.103 0 2-.897 2-2V5c0-1.103-.897-2-2-2H5zm14 5H5V5h14v3zM5 10h14.001l.001 9H5v-9z" fill="#2E3A59" mask="url(#a)"/>
 </g>
 <path transform="matrix(.80951 .010367 -.010508 .79867 3.6864 3.5811)" d="m18.177 17.996-6.2116-1.2389 4.1787-4.76z" fill="#2e3a59" fill-rule="evenodd" stroke-linecap="round" stroke-width=".738"/>
</svg>
