<svg width="24" height="24" version="1.1" viewBox="0 0 24 24" xmlns="http://www.w3.org/2000/svg" xmlns:xlink="http://www.w3.org/1999/xlink">
 <defs>
  <path id="a" d="M0 0H24V24H0z"/>
 </defs>
 <g fill-rule="evenodd">
  <mask id="b" fill="#fff">
   <use xlink:href="#a"/>
  </mask>
  <path d="M8.293 17.293L10.586 15l-2.293-2.293 1.414-1.414L12 13.586l2.293-2.293 1.414 1.414L13.414 15l2.293 2.293-1.414 1.414L12 16.414l-2.293 2.293-1.414-1.414zM17 4h2c1.103 0 2 .897 2 2v14c0 1.103-.897 2-2 2H5c-1.103 0-2-.897-2-2V6c0-1.103.897-2 2-2h2V2h2v2h6V2h2v2zM5 20h14.002l-.001-10H5v10zM5 8h14V6H5v2z" fill="#2E3A59" mask="url(#b)"/>
 </g>
</svg>
