<svg width="24" height="24" version="1.1" viewBox="0 0 24 24" xmlns="http://www.w3.org/2000/svg">
 <path transform="matrix(1.3126 0 0 1.2627 5.4342 -.60157)" d="m8.1464 2.2435-1.2971 2.5461 2.1794 1.848-2.8223-0.44683-1.0841 2.6438-0.44718-2.8222-2.8494-0.21403 2.5459-1.2974-0.67696-2.7761 2.0206 2.0204z" fill="#2e3a59" fill-rule="evenodd" stroke-linecap="round" stroke-width="1.473"/>
 <rect transform="matrix(.69026 -.72356 .61054 .79199 0 0)" x="-8.5126" y="18.424" width="14.397" height="1.1978" fill="#2e3a59" fill-rule="evenodd" stroke="#2e3a59" stroke-linecap="round" stroke-linejoin="round" stroke-width=".96673"/>
 <path transform="matrix(.91649 0 0 .9414 14.553 4.3448)" d="m8.1464 2.2435-1.2971 2.5461 2.1794 1.848-2.8223-0.44683-1.0841 2.6438-0.44718-2.8222-2.8494-0.21403 2.5459-1.2974-0.67696-2.7761 2.0206 2.0204z" fill="#2e3a59" fill-rule="evenodd" stroke-linecap="round" stroke-width="1.473"/>
</svg>
