<svg width="24" height="24" version="1.1" viewBox="0 0 24 24" xmlns="http://www.w3.org/2000/svg" xmlns:xlink="http://www.w3.org/1999/xlink">
 <defs>
  <path id="a" d="M0 0H24V24H0z"/>
 </defs>
 <g fill-rule="evenodd">
  <mask id="b" fill="#fff">
   <use xlink:href="#a"/>
  </mask>
  <path d="M9.5 9.5c1.586 0 2.925-1.054 3.355-2.5H22V5h-9.145c-.43-1.446-1.77-2.5-3.355-2.5C7.567 2.5 6 4.067 6 6s1.567 3.5 3.5 3.5c1.057 0 1.057 0 0 0zM11 6c0 .828-.672 1.5-1.5 1.5S8 6.828 8 6s.672-1.5 1.5-1.5S11 5.172 11 6c0 .552 0 .552 0 0zm5.5 9.5c1.586 0 2.925-1.054 3.355-2.5H22v-2h-2.145c-.43-1.446-1.77-2.5-3.355-2.5-1.933 0-3.5 1.567-3.5 3.5s1.567 3.5 3.5 3.5c1.057 0 1.057 0 0 0zm0-2c.828 0 1.5-.672 1.5-1.5s-.672-1.5-1.5-1.5-1.5.672-1.5 1.5.672 1.5 1.5 1.5c.552 0 .552 0 0 0zm-9 8c1.933 0 3.5-1.567 3.5-3.5s-1.567-3.5-3.5-3.5c-1.586 0-2.925 1.054-3.355 2.5H2v2h2.145c.43 1.446 1.77 2.5 3.355 2.5 1.289 0 1.289 0 0 0zm0-2c.828 0 1.5-.672 1.5-1.5s-.672-1.5-1.5-1.5S6 17.172 6 18s.672 1.5 1.5 1.5c.552 0 .552 0 0 0zM22 17v2H12v-2h10zM2 11v2h10v-2H2zm0-6v2h3V5H2z" fill="#2E3A59" mask="url(#b)"/>
 </g>
</svg>
