<svg width="24" height="24" version="1.1" viewBox="0 0 24 24" xmlns="http://www.w3.org/2000/svg" xmlns:xlink="http://www.w3.org/1999/xlink">
 <defs>
  <path id="a" d="M0 0H24V24H0z"/>
 </defs>
 <g fill-rule="evenodd">
  <mask id="b" fill="#fff">
   <use xlink:href="#a"/>
  </mask>
  <path d="M14.376 12.477c1.67-2.343 1.454-5.617-.648-7.72-2.343-2.343-6.142-2.343-8.485 0-2.343 2.344-2.343 6.142 0 8.486 2.102 2.102 5.376 2.318 7.72.648l5.715 5.716 1.414-1.415-5.716-5.715c1.114-1.562 1.114-1.562 0 0zm-2.062-6.305c1.562 1.562 1.562 4.094 0 5.656-1.562 1.563-4.095 1.563-5.657 0-1.562-1.562-1.562-4.094 0-5.656 1.562-1.563 4.095-1.563 5.657 0 1.041 1.041 1.041 1.041 0 0z" fill="#2E3A59" mask="url(#b)"/>
 </g>
</svg>
