<svg width="24" height="24" version="1.1" viewBox="0 0 24 24" xmlns="http://www.w3.org/2000/svg">
 <path d="m12 3.4278c-4.6278 0-9.2552 0.23704-9.8485 0.71065-1.1866 0.94721-1.1866 14.776 0 15.723 1.1866 0.94721 18.51 0.94721 19.697 0 1.1866-0.94721 1.1866-14.776 0-15.723-0.5933-0.47361-5.2207-0.71065-9.8485-0.71065zm0.48136 0.61273c3.3138 0.00738 6.5414 0.20069 7.4156 0.57416 1.247 0.53273 1.3809 1.2495 1.3809 7.4195 0 6.8079-0.0061 6.8331-1.8307 7.3869-2.2707 0.68915-12.942 0.66588-15.119-0.03264-1.5408-0.49438-1.6058-0.79306-1.6058-7.3839 0-6.8491 0.00527-6.8715 1.8307-7.4255 1.2152-0.36882 4.6148-0.54592 7.9286-0.53855z" fill="#2e3a59" stroke="#2e3a59" stroke-width=".93725"/>
 <text x="2.8794112" y="17.873903" font-family="sans-serif" font-size="12px" style="line-height:1.25" xml:space="preserve"><tspan x="2.8794112" y="17.873903"/></text>
 <rect x="6.2204" y="14.781" width="7.2802" height="1.1796" fill="#2e3a59" fill-rule="evenodd" stroke="#2e3a59" stroke-linecap="round" stroke-linejoin="round" stroke-width=".91776"/>
</svg>
