<svg width="24" height="24" version="1.1" viewBox="0 0 24 24" xmlns="http://www.w3.org/2000/svg" xmlns:xlink="http://www.w3.org/1999/xlink">
 <defs>
  <path id="c" d="M0 0H24V24H0z"/>
  <mask id="a" fill="#fff">
   <path d="m0 0h24v24h-24z"/>
  </mask>
 </defs>
 <g fill-rule="evenodd">
  <mask id="b" fill="#fff">
   <use xlink:href="#c"/>
  </mask>
  <path d="m5 3c-1.103 0-2 0.897-2 2v14c0 1.103 0.897 2 2 2h7.6934l-0.56055-0.94336c-0.14468-0.2442-0.095402-0.55394 0.11914-0.74414l0.35352-0.3125h-7.6055v-9h14.002v2.002h0.17383c0.29059 0 0.54169 0.1953 0.60352 0.4707l0.25586 1.1309c0.17436 0.0738 0.34202 0.1576 0.50586 0.25 0.15148 0.0858 0.30054 0.17925 0.44336 0.28125l0.015625-0.003907v-9.1309c0-1.103-0.897-2-2-2h-14zm0 2h14v3h-14v-3z" fill="#2e3a59" mask="url(#b)"/>
 </g>
 <g transform="matrix(.51523 0 0 .5 11.634 12.179)" fill="#2e3a59" fill-rule="evenodd">
  <g stroke-width="1.0009">
   <mask fill="#ffffff">
    <path d="m0 0h24v24h-24z"/>
   </mask>
   <path d="m12 16c-2.21 0-4-1.79-4-4s1.79-4 4-4 4 1.79 4 4-1.79 4-4 4zm0-2c-1.105 0-2-0.895-2-2s0.895-2 2-2 2 0.895 2 2-0.895 2-2 2zm-7.75-8.576c0.235-0.407 0.721-0.596 1.17-0.453l1.836 0.585c0.245-0.18 0.5-0.346 0.762-0.496 0.25-0.143 0.507-0.274 0.773-0.39l0.412-1.884c0.1-0.459 0.507-0.786 0.977-0.786h3.64c0.47 0 0.877 0.327 0.977 0.786l0.412 1.884c0.282 0.123 0.555 0.263 0.82 0.417 0.245 0.143 0.484 0.299 0.715 0.469l1.837-0.585c0.448-0.143 0.934 0.046 1.17 0.453l1.82 3.152c0.234 0.407 0.154 0.923-0.193 1.24l-1.425 1.298c0.032 0.295 0.049 0.59 0.048 0.885 0 0.295-0.015 0.591-0.048 0.887l1.425 1.299c0.347 0.316 0.427 0.832 0.192 1.239l-1.82 3.152c-0.235 0.407-0.721 0.596-1.17 0.453l-1.836-0.585c-0.234 0.172-0.476 0.33-0.725 0.475-0.26 0.152-0.531 0.29-0.81 0.411l-0.412 1.884c-0.1 0.459-0.507 0.786-0.977 0.786h-3.64c-0.47 0-0.877-0.327-0.977-0.786l-0.412-1.884c-0.262-0.115-0.518-0.244-0.765-0.385-0.265-0.151-0.522-0.318-0.77-0.5l-1.837 0.584c-0.448 0.143-0.934-0.046-1.17-0.453l-1.82-3.152c-0.234-0.407-0.154-0.923 0.193-1.24l1.425-1.298c-0.033-0.295-0.049-0.591-0.048-0.886 0-0.295 0.015-0.59 0.048-0.886l-1.425-1.299c-0.347-0.316-0.427-0.832-0.192-1.239zm9.223 0.668 0.933 0.41c0.211 0.092 0.416 0.196 0.614 0.312l3e-3 2e-3c0.184 0.107 0.363 0.224 0.536 0.351l0.82 0.604 2.042-0.65 1.015 1.758-1.583 1.443 0.112 1.012c0.024 0.221 0.036 0.442 0.036 0.663 0 0.225-0.011 0.447-0.036 0.669l-0.112 1.012 1.583 1.443-1.015 1.758-2.041-0.65-0.821 0.604c-0.175 0.129-0.356 0.247-0.543 0.355-0.199 0.116-0.401 0.22-0.61 0.31l-0.933 0.41-0.458 2.092h-2.03l-0.458-2.092-0.933-0.41c-0.196-0.085-0.388-0.182-0.573-0.288l-3e-3 -2e-3c-0.199-0.113-0.392-0.239-0.577-0.375l-0.82-0.604-2.042 0.65-1.015-1.758 1.583-1.443-0.112-1.012c-0.025-0.221-0.037-0.443-0.036-0.664 0-0.225 0.011-0.447 0.036-0.668l0.112-1.012-1.583-1.443 1.016-1.758 2.041 0.65 0.821-0.604c0.183-0.135 0.374-0.259 0.57-0.371l4e-3 -2e-3c0.187-0.108 0.38-0.206 0.58-0.293l0.932-0.409 0.457-2.092h2.03z" fill="#2e3a59" mask="url(#a)"/>
   <path d="m12 16c-2.21 0-4-1.79-4-4s1.79-4 4-4 4 1.79 4 4-1.79 4-4 4zm0-2c-1.105 0-2-0.895-2-2s0.895-2 2-2 2 0.895 2 2-0.895 2-2 2zm-7.75-8.576c0.235-0.407 0.721-0.596 1.17-0.453l1.836 0.585c0.245-0.18 0.5-0.346 0.762-0.496 0.25-0.143 0.507-0.274 0.773-0.39l0.412-1.884c0.1-0.459 0.507-0.786 0.977-0.786h3.64c0.47 0 0.877 0.327 0.977 0.786l0.412 1.884c0.282 0.123 0.555 0.263 0.82 0.417 0.245 0.143 0.484 0.299 0.715 0.469l1.837-0.585c0.448-0.143 0.934 0.046 1.17 0.453l1.82 3.152c0.234 0.407 0.154 0.923-0.193 1.24l-1.425 1.298c0.032 0.295 0.049 0.59 0.048 0.885 0 0.295-0.015 0.591-0.048 0.887l1.425 1.299c0.347 0.316 0.427 0.832 0.192 1.239l-1.82 3.152c-0.235 0.407-0.721 0.596-1.17 0.453l-1.836-0.585c-0.234 0.172-0.476 0.33-0.725 0.475-0.26 0.152-0.531 0.29-0.81 0.411l-0.412 1.884c-0.1 0.459-0.507 0.786-0.977 0.786h-3.64c-0.47 0-0.877-0.327-0.977-0.786l-0.412-1.884c-0.262-0.115-0.518-0.244-0.765-0.385-0.265-0.151-0.522-0.318-0.77-0.5l-1.837 0.584c-0.448 0.143-0.934-0.046-1.17-0.453l-1.82-3.152c-0.234-0.407-0.154-0.923 0.193-1.24l1.425-1.298c-0.033-0.295-0.049-0.591-0.048-0.886 0-0.295 0.015-0.59 0.048-0.886l-1.425-1.299c-0.347-0.316-0.427-0.832-0.192-1.239zm9.223 0.668 0.933 0.41c0.211 0.092 0.416 0.196 0.614 0.312l3e-3 2e-3c0.184 0.107 0.363 0.224 0.536 0.351l0.82 0.604 2.042-0.65 1.015 1.758-1.583 1.443 0.112 1.012c0.024 0.221 0.036 0.442 0.036 0.663 0 0.225-0.011 0.447-0.036 0.669l-0.112 1.012 1.583 1.443-1.015 1.758-2.041-0.65-0.821 0.604c-0.175 0.129-0.356 0.247-0.543 0.355-0.199 0.116-0.401 0.22-0.61 0.31l-0.933 0.41-0.458 2.092h-2.03l-0.458-2.092-0.933-0.41c-0.196-0.085-0.388-0.182-0.573-0.288l-3e-3 -2e-3c-0.199-0.113-0.392-0.239-0.577-0.375l-0.82-0.604-2.042 0.65-1.015-1.758 1.583-1.443-0.112-1.012c-0.025-0.221-0.037-0.443-0.036-0.664 0-0.225 0.011-0.447 0.036-0.668l0.112-1.012-1.583-1.443 1.016-1.758 2.041 0.65 0.821-0.604c0.183-0.135 0.374-0.259 0.57-0.371l4e-3 -2e-3c0.187-0.108 0.38-0.206 0.58-0.293l0.932-0.409 0.457-2.092h2.03z" fill="#2e3a59" mask="url(#a)"/>
  </g>
 </g>
</svg>
