<svg xmlns="http://www.w3.org/2000/svg" xmlns:xlink="http://www.w3.org/1999/xlink" width="24" height="24" viewBox="0 0 24 24">
    <defs>
        <path id="3giks50gwa" d="M0 0H24V24H0z"/>
    </defs>
    <g fill="none" fill-rule="evenodd">
        <g>
            <mask id="1pyngwu2wb" fill="#fff">
                <use xlink:href="#3giks50gwa"/>
            </mask>
            <path fill="#2E3A59" d="M10 2h10c1.152 0 2 .848 2 2v10c0 1.152-.848 2-2 2h-4v4c0 1.152-.848 2-2 2H4c-1.152 0-2-.848-2-2V10c0-1.152.848-2 2-2h4V4c0-1.152.848-2 2-2zm-2 8H4v10h10v-4h-4c-1.152 0-2-.848-2-2v-4zm2-6v10h10V4H10z" mask="url(#1pyngwu2wb)"/>
        </g>
    </g>
</svg>
