<svg xmlns="http://www.w3.org/2000/svg" xmlns:xlink="http://www.w3.org/1999/xlink" width="24" height="24" viewBox="0 0 24 24">
    <defs>
        <path id="qujd90ol3a" d="M0 0H24V24H0z"/>
    </defs>
    <g fill="none" fill-rule="evenodd">
        <g>
            <mask id="dcsesf40qb" fill="#fff">
                <use xlink:href="#qujd90ol3a"/>
            </mask>
            <path fill="#2E3A59" d="M2 9.132c0-.702.369-1.353.971-1.715l8-4.8c.633-.38 1.425-.38 2.058 0l8 4.8c.602.362.971 1.013.971 1.715V20c0 1.105-.895 2-2 2H4c-1.105 0-2-.895-2-2V9.132c0-.468 0-.468 0 0zm18 .737V20H4V9.869l8 5.333 8-5.333zm-1.316-1.527L12 4.332l-6.684 4.01L12 12.798l6.684-4.456z" mask="url(#dcsesf40qb)"/>
        </g>
    </g>
</svg>
