<svg width="24" height="24" version="1.1" viewBox="0 0 24 24" xmlns="http://www.w3.org/2000/svg" xmlns:xlink="http://www.w3.org/1999/xlink">
 <defs>
  <path id="b" d="M0 0H24V24H0z"/>
  <mask id="c" fill="#ffffff">
   <use width="100%" height="100%" xlink:href="#b"/>
  </mask>
  <mask id="a" fill="#ffffff">
   <path d="m0 0h24v24h-24z"/>
  </mask>
 </defs>
 <path d="m4 4c-1.105 0-2 0.895-2 2v12c0 1.105 0.895 2 2 2h9.7637v-2h-9.7637v-10.131l8 5.332 8-5.332v3.4414c0.75396 0.09224 1.4257 0.27601 2 0.52734v-5.8379c0-1.105-0.895-2-2-2zm0.80273 2h14.395l-7.1973 4.7988z" fill="#2e3a59" fill-rule="evenodd" mask="url(#c)"/>
 <path transform="matrix(.50592 0 0 .50592 12.981 11.525)" d="m20 17.5v-10.5h-0.047c0.03-0.164 0.047-0.33 0.047-0.5 0-2.565-3.44-4.5-8-4.5-4.259 0-7.538 1.688-7.953 4l-0.047 11.5c-0.010483 2.565 3.44 4.5 8 4.5s8-1.935 8-4.5zm-14.222 0v-8.106c1.442 0.993 3.654 1.606 6.222 1.606s4.78-0.613 6.222-1.606v8.106c0 1.02-2.424 2.5-6.222 2.5s-6.222-1.48-6.222-2.5zm12.444-11c0 1.02-2.424 2.5-6.222 2.5s-6.222-1.48-6.222-2.5 2.424-2.5 6.222-2.5 6.222 1.48 6.222 2.5z" fill="#2e3a59" mask="url(#a)" stroke="#2e3a59" stroke-width="1.2552"/>
</svg>
