<svg width="20" height="23" version="1.1" viewBox="0 0 20 23" xmlns="http://www.w3.org/2000/svg">
 <defs>
  <filter id="a">
   <feColorMatrix in="SourceGraphic" values="0 0 0 0 0.976471 0 0 0 0 0.831373 0 0 0 0 0.701961 0 0 0 1.000000 0"/>
  </filter>
 </defs>
 <g fill="#2e3a59" fill-rule="evenodd">
  <g fill="#2e3a59">
   <g transform="translate(1 1)" fill="#2e3a59" filter="url(#a)">
    <g fill="#2e3a59" fill-rule="nonzero">
     <path d="M4.478 13.487c0-.348-.254-.556-.701-.556-.183 0-.307.017-.372.034v1.117c.077.016.171.021.301.021.477 0 .772-.23.772-.616zM7.25 12.943c-.2 0-.33.016-.406.033v2.474c.077.017.2.017.312.017.814.006 1.345-.42 1.345-1.324.005-.785-.478-1.2-1.25-1.2z"/>
     <path d="M12.402 0H3.555C2.262 0 1.21 1.002 1.21 2.231v8.25H.982c-.522 0-.945.402-.945.9v5.452c0 .497.423.899.945.899h.228v1c0 1.23 1.052 2.23 2.345 2.23h12.07c1.293 0 2.345-1 2.345-2.23V5.28L12.402 0zM2.515 12.364c.277-.044.666-.078 1.214-.078.554 0 .95.1 1.215.303.253.19.424.505.424.875s-.13.685-.365.898c-.307.275-.76.398-1.291.398-.118 0-.224-.006-.307-.017v1.352h-.89v-3.73zm13.11 7.232H3.556c-.5 0-.908-.388-.908-.865v-1H13.9c.521 0 .944-.401.944-.898V11.38c0-.497-.423-.899-.944-.899H2.647v-8.25c0-.475.407-.863.908-.863l8.31-.009v2.924c0 .853.727 1.547 1.625 1.547l3.01-.008.033 12.91c0 .476-.407.864-.907.864zm-9.683-3.518v-3.714c.33-.05.76-.078 1.214-.078.755 0 1.244.129 1.628.404.412.292.671.757.671 1.425 0 .724-.277 1.223-.66 1.532-.418.33-1.055.487-1.833.487-.466 0-.796-.028-1.02-.056zm6.434-2.199v.696h-1.427v1.52h-.902v-3.78h2.429v.7h-1.527v.864h1.427z" fill-rule="nonzero" stroke="#F9D4B3" stroke-width="0"/>
    </g>
   </g>
   <path d="m4.0397 21.893c-0.86541-0.18587-1.5568-0.84411-1.755-1.6708-0.047883-0.19973-0.057332-0.34207-0.057502-0.8662l-2.032e-4 -0.6272-0.23928-0.01262c-0.412-0.021729-0.70029-0.20396-0.85939-0.54322l-0.075985-0.16203v-5.8298l0.081372-0.16572c0.16182-0.32956 0.47829-0.51586 0.87629-0.51586h0.21589l0.0156-8.6866 0.081436-0.23203c0.26518-0.75555 0.89033-1.3148 1.6919-1.5136 0.18216-0.045172 0.58521-0.050142 4.7842-0.058991l4.5852-0.009663 0.64994 0.61466c0.35746 0.33806 0.78045 0.73987 0.93997 0.8929s1.1221 1.0663 2.139 2.0295l1.849 1.7512-2.32e-4 6.7901c-1.45e-4 4.6018-0.01003 6.8509-0.03067 6.9787-0.13343 0.82606-0.71868 1.4911-1.5641 1.7774l-0.27576 0.09338-6.4243 0.0051c-5.6207 0.0044-6.4497-3.77e-4 -6.6274-0.03853zm12.979-1.3759c0.18748-0.08833 0.35326-0.25007 0.44319-0.43241l0.06438-0.13052-5.6e-4 -3.7995c-3.07e-4 -2.0897-0.0036-5.0504-0.0073-6.5794l-0.0067-2.7799-1.646 0.00872c-1.8253 0.00967-1.7892 0.012744-2.1657-0.18433-0.22538-0.118-0.52602-0.42012-0.64904-0.6523-0.17146-0.32361-0.17882-0.40965-0.17938-2.0988l-5.03e-4 -1.5255-4.2563 0.013727c-4.1868 0.013503-4.2589 0.014688-4.4149 0.072539-0.20941 0.077644-0.43687 0.30251-0.50335 0.49761-0.044611 0.13093-0.048619 0.49006-0.048619 4.3573v4.2146l11.529 0.015 0.14814 0.07816c0.20426 0.10776 0.40657 0.33961 0.46164 0.52904 0.03814 0.13121 0.04288 0.53132 0.0361 3.0493l-0.0078 2.8983-0.07751 0.14686c-0.09265 0.17555-0.26861 0.34138-0.45414 0.428l-0.13544 0.06323-11.5 0.0152v1.2082l0.088694 0.17749c0.11863 0.2374 0.33272 0.40776 0.59289 0.47178 0.047856 0.01178 2.8866 0.01942 6.3083 0.01699l6.2213-0.0044zm-8.6599-3.3914c1.1409-0.09452 1.8017-0.55154 2.0331-1.4061 0.07484-0.27639 0.08843-0.7416 0.03012-1.031-0.070849-0.35161-0.19235-0.58259-0.43573-0.82833-0.472-0.47658-1.1644-0.64209-2.3738-0.56743-0.30617 0.0189-0.58603 0.04231-0.62192 0.05202l-0.065258 0.01766v3.7295l0.23928 0.0175c0.43041 0.03148 0.4982 0.03552 0.67434 0.04019 0.095712 0.0025 0.32964-0.0083 0.51983-0.02404zm-3.9568-0.69188v-0.66343l0.4133-0.01429c0.63175-0.021853 0.97892-0.15322 1.2746-0.48231 0.20131-0.22405 0.26592-0.41369 0.26808-0.78687 0.0016417-0.28335-0.0045939-0.31796-0.089633-0.49745-0.1119-0.23618-0.27181-0.40088-0.50204-0.51711-0.23912-0.12071-0.47336-0.17075-0.90026-0.19232-0.32606-0.01647-1.1282 0.02431-1.2979 0.06599l-0.065259 0.01603v3.7352h0.89912zm7.57-0.09066v-0.7541h1.4212v-0.7251h-1.4212v-0.84111h1.5082v-0.72509h-2.4363v3.7995h0.92812z" fill-rule="nonzero" stroke-width="0"/>
   <path d="m4.453 15.078c-0.04601-0.01369-0.050757-0.06622-0.050757-0.56174v-0.54664l0.19446-0.02083c0.37102-0.03973 0.70044 0.07575 0.81112 0.28437 0.029508 0.05561 0.050385 0.15991 0.050824 0.25391 0.0017 0.36396-0.2532 0.57719-0.71254 0.59607-0.1333 0.0055-0.2652 0.0032-0.29312-0.0051z" fill-rule="nonzero" stroke-width="0"/>
   <path d="m7.867 16.423c-0.00766-0.01995-0.010509-0.57791-0.00634-1.2399l0.00758-1.2036 0.39155 0.0022c0.47404 0.0026 0.63914 0.05406 0.88002 0.27422 0.23105 0.21117 0.31757 0.42136 0.33304 0.80909 0.013887 0.34819-0.02273 0.55191-0.14169 0.78829-0.15663 0.31122-0.4554 0.50802-0.87453 0.57604-0.25915 0.04205-0.57237 0.03873-0.58963-0.0062z" fill-rule="nonzero" stroke-width="0"/>
  </g>
 </g>
</svg>
