<?xml version="1.0" encoding="utf-8"?>
<!-- Generator: Adobe Illustrator 26.3.1, SVG Export Plug-In . SVG Version: 6.00 Build 0)  -->
<svg version="1.1" id="Capa_1" xmlns="http://www.w3.org/2000/svg" xmlns:xlink="http://www.w3.org/1999/xlink" x="0px" y="0px"
	 viewBox="0 0 548.3 548.3" style="enable-background:new 0 0 548.3 548.3;" xml:space="preserve">
<style type="text/css">
	.st0{fill:#2E3A59;}
</style>
<g>
	<path class="st0" d="M486.2,196.1H473v-63.5c0-0.4-0.1-0.8-0.1-1.2c0-2.5-0.8-5-2.6-7L364.7,3.7c0,0-0.1,0-0.1-0.1
		c-0.6-0.7-1.4-1.3-2.1-1.8c-0.2-0.2-0.5-0.3-0.7-0.4c-0.7-0.4-1.4-0.7-2.1-0.9c-0.2-0.1-0.4-0.1-0.6-0.2c-0.8-0.2-1.6-0.3-2.5-0.3
		H96.8C84.9,0,75.3,9.6,75.3,21.5v174.6H62.1c-17,0-30.7,13.8-30.7,30.7v159.8c0,17,13.8,30.7,30.7,30.7h13.2v109.4
		c0,11.9,9.6,21.5,21.5,21.5h354.8c11.9,0,21.5-9.6,21.5-21.5V417.4h13.2c17,0,30.7-13.8,30.7-30.7V226.9
		C516.9,209.9,503.2,196.1,486.2,196.1z M96.8,21.5h249.1v110c0,5.9,4.8,10.8,10.8,10.8h95v53.9H96.8V21.5z M202.8,225h41.7
		l14.1,29.3c4.8,9.8,8.3,17.6,12.1,26.7h0.5c3.8-10.2,6.9-17.4,11-26.7l13.6-29.3h41.4l-45.3,78.4l47.6,82.2h-41.9l-14.5-29.1
		c-6-11.2-9.8-19.5-14.3-28.8h-0.5c-3.3,9.3-7.4,17.6-12.4,28.8l-13.3,29.1h-41.5l46.5-81.2L202.8,225z M66.1,255.5V225h123.4v30.5
		h-43.8v130h-36.4v-130H66.1z M451.5,521H96.8V417.4h354.8L451.5,521L451.5,521z M471.8,255.5h-43.8v130h-36.4v-130h-43.1V225h123.4
		L471.8,255.5L471.8,255.5z"/>
</g>
</svg>
