<svg width="20" height="23" version="1.1" viewBox="0 0 20 23" xmlns="http://www.w3.org/2000/svg">
 <defs>
  <filter id="a">
   <feColorMatrix in="SourceGraphic" values="0 0 0 0 0.976471 0 0 0 0 0.831373 0 0 0 0 0.701961 0 0 0 1.000000 0"/>
  </filter>
 </defs>
 <g fill="#2e3a59" fill-rule="evenodd">
  <g fill="#2e3a59" fill-rule="nonzero" stroke-width="0">
   <path d="m13.402 1h-8.847c-1.293 0-2.345 1.002-2.345 2.231v8.25s0.016986 7.2482 0 7.251v1c0 1.23 1.052 2.23 2.345 2.23h12.07c1.293 0 2.345-1 2.345-2.23v-13.452zm3.223 19.596h-12.069c-0.5 0-0.908-0.388-0.908-0.865 0 0-1e-3 -6.4766-1e-3 -16.5 0-0.475 0.407-0.863 0.908-0.863l8.31-9e-3v2.924c0 0.853 0.727 1.547 1.625 1.547l3.01-8e-3 0.033 12.91c0 0.476-0.407 0.864-0.907 0.864z" filter="url(#a)" stroke="#F9D4B3"/>
   <path d="m4.0397 21.893c-0.86541-0.18587-1.5568-0.84411-1.755-1.6708-0.047883-0.19973-0.057332-0.34207-0.057502-0.8662l-2.032e-4 -0.6272c-0.016986 0.002784-0.0011024-7.2292-0.0011024-7.2292l0.0156-8.6866 0.081436-0.23203c0.26518-0.75555 0.89033-1.3148 1.6919-1.5136 0.18216-0.045172 0.58521-0.050142 4.7842-0.058991l4.5852-0.009663 0.64994 0.61466c0.35746 0.33806 0.78045 0.73987 0.93997 0.8929s1.1221 1.0663 2.139 2.0295l1.849 1.7512-2.32e-4 6.7901c-1.45e-4 4.6018-0.01003 6.8509-0.03067 6.9787-0.13343 0.82606-0.71868 1.4911-1.5641 1.7774l-0.27576 0.09338-6.4243 0.0051c-5.6207 0.0044-6.4497-3.77e-4 -6.6274-0.03853zm12.979-1.3759c0.18748-0.08833 0.35326-0.25007 0.44319-0.43241l0.06438-0.13052-5.6e-4 -3.7995c-3.07e-4 -2.0897-0.0036-5.0504-0.0073-6.5794l-0.0067-2.7799-1.646 0.00872c-1.8253 0.00967-1.7892 0.012744-2.1657-0.18433-0.22538-0.118-0.52602-0.42012-0.64904-0.6523-0.17146-0.32361-0.17882-0.40965-0.17938-2.0988l-5.03e-4 -1.5255-4.2563 0.013727c-4.1868 0.013503-4.2589 0.014688-4.4149 0.072539-0.20941 0.077644-0.43687 0.30251-0.50335 0.49761-0.044611 0.13093-0.048619 0.49006-0.048619 4.3573-1.31e-5 4.2153-8e-6 8.4306-8e-6 12.646l0.088694 0.17749c0.11863 0.2374 0.33272 0.40776 0.59289 0.47178 0.047856 0.01178 2.8866 0.01942 6.3083 0.01699l6.2213-0.0044z"/>
  </g>
 </g>
</svg>
