<?xml version="1.0" encoding="utf-8"?>
<!-- Generator: Adobe Illustrator 25.3.1, SVG Export Plug-In . SVG Version: 6.00 Build 0)  -->
<svg version="1.1" id="Ebene_1" xmlns="http://www.w3.org/2000/svg" xmlns:xlink="http://www.w3.org/1999/xlink" x="0px" y="0px"
	 viewBox="0 0 24 24" style="enable-background:new 0 0 24 24;" xml:space="preserve">
<style type="text/css">
	.st0{filter:url(#Adobe_OpacityMaskFilter);}
	.st1{fill-rule:evenodd;clip-rule:evenodd;fill:#FFFFFF;}
	.st2{mask:url(#oy71ezsxlb_4_);fill-rule:evenodd;clip-rule:evenodd;fill:#2E3A59;}
	.st3{filter:url(#Adobe_OpacityMaskFilter_1_);}
	.st4{mask:url(#oy71ezsxlb_3_);fill-rule:evenodd;clip-rule:evenodd;fill:#2E3A59;}
</style>
<g>
	<g>
		<defs>
			<filter id="Adobe_OpacityMaskFilter" filterUnits="userSpaceOnUse" x="3" y="1.8" width="18" height="19.8">
				<feColorMatrix  type="matrix" values="1 0 0 0 0  0 1 0 0 0  0 0 1 0 0  0 0 0 1 0"/>
			</filter>
		</defs>
		<mask maskUnits="userSpaceOnUse" x="3" y="1.8" width="18" height="19.8" id="oy71ezsxlb_4_">
			<g class="st0">
				<path id="g5ias26twa_4_" class="st1" d="M24,25H0L0-1.5h24V25z"/>
			</g>
		</mask>
		<path class="st2" d="M19,19.5H5V4h14v1.9l2,1.9V4c0-1.2-0.9-2.2-2-2.2H5c-1.1,0-2,1-2,2.2v15.4c0,1.2,0.9,2.2,2,2.2h14
			c1.1,0,2-1,2-2.2v-3.1l-2,1.7L19,19.5z"/>
		<defs>
			<filter id="Adobe_OpacityMaskFilter_1_" filterUnits="userSpaceOnUse" x="10.8" y="8" width="13" height="8">
				<feColorMatrix  type="matrix" values="1 0 0 0 0  0 1 0 0 0  0 0 1 0 0  0 0 0 1 0"/>
			</filter>
		</defs>
		<mask maskUnits="userSpaceOnUse" x="10.8" y="8" width="13" height="8" id="oy71ezsxlb_3_">
			<g class="st3">
				<path id="g5ias26twa_3_" class="st1" d="M7.8,0h24v24h-24V0z"/>
			</g>
		</mask>
		<polygon class="st4" points="18.8,8 23.8,12 18.8,16 18.8,13 10.8,13 10.8,11 18.8,11 		"/>
	</g>
</g>
</svg>
