<svg width="99" height="81" version="1.1" viewBox="0 0 99 81" xmlns="http://www.w3.org/2000/svg">
 <g fill-rule="evenodd">
  <path d="M48.418 81c-1.554 0-3.016-.307-4.417-.902-2.7-1.145-7.416-4.2-8.675-11.796-.56-3.377-.4-7.263.492-11.88 1.353-7.008 3.999-13.346 4.112-13.612l14.17 5.893c-2.306 5.52-3.85 12.325-3.773 15.907 3.487-1.606 9.998-6.898 19.957-18.263C78.997 36.4 86.893 27.095 86.968 27L99 36.5c-.379.474-9.38 11.745-19.76 22.703C64.89 74.35 55.655 81 48.417 81" fill="#EE7203"/>
  <path d="M12.143 55L0 45.99c.363-.506 9.01-12.52 18.984-23.994C25 15.076 30.278 9.772 34.67 6.236c2.927-2.354 11.83-9.518 19.56-4.479 4.577 2.985 9.534 9.51 7.15 23.656-1.153 6.846-3.69 13.032-3.69 13.032L43.83 32.527s1.932-4.755 2.768-9.903c.495-3.05.429-5.141.184-6.425-3.268 1.887-8.539 6.172-19.117 18.938C19.345 45.177 12.213 54.903 12.143 55" fill="#21445B"/>
 </g>
</svg>
