<svg width="22" height="22" version="1.1" viewBox="0 0 22 22" xmlns="http://www.w3.org/2000/svg">
 <defs>
  <filter id="a">
   <feColorMatrix in="SourceGraphic" values="0 0 0 0 0.976471 0 0 0 0 0.831373 0 0 0 0 0.701961 0 0 0 1.000000 0"/>
  </filter>
  <filter id="a-3">
   <feColorMatrix in="SourceGraphic" values="0 0 0 0 0.976471 0 0 0 0 0.831373 0 0 0 0 0.701961 0 0 0 1.000000 0"/>
  </filter>
 </defs>
 <g fill="none" fill-rule="evenodd">
  <g filter="url(#a)"></g>
 </g>
 <g transform="matrix(.83617 0 0 .83188 1.8639 1.8635)" fill="none">
  <g filter="url(#a-3)">
   <g fill="#000">
    <circle cx="15.641" cy="6.018" r="1.375"/>
    <path d="m21.763 7.13c-0.46-1.168-1.3-2.854-2.704-4.25-1.398-1.393-3.066-2.21-4.219-2.65-1.266-0.484-2.705-0.18-3.665 0.777l-3.375 3.358c-1 0.996-1.288 2.528-0.717 3.813 0.177 0.398 0.37 0.788 0.575 1.164l-7.406 7.408c-0.161 0.161-0.252 0.38-0.252 0.608v3.78c0 0.476 0.385 0.86 0.86 0.86h3.78c0.475 0 0.86-0.384 0.86-0.86v-1.546h1.547c0.475 0 0.86-0.385 0.86-0.86v-1.546h1.546c0.475 0 0.86-0.385 0.86-0.86 0-0.474-0.385-0.859-0.86-0.859h-2.406c-0.475 0-0.86 0.385-0.86 0.86v1.546h-1.546c-0.475 0-0.86 0.385-0.86 0.86v1.547h-2.061v-2.566l7.62-7.621c0.28-0.28 0.333-0.715 0.128-1.054-0.298-0.49-0.572-1.015-0.814-1.559-0.283-0.637-0.139-1.4 0.36-1.895l3.375-3.36c0.481-0.479 1.203-0.632 1.839-0.389 0.997 0.381 2.435 1.084 3.62 2.263 1.192 1.186 1.917 2.645 2.316 3.66 0.249 0.634 0.098 1.354-0.385 1.835l-3.416 3.399c-0.497 0.495-1.24 0.64-1.891 0.369-0.537-0.224-1.058-0.49-1.547-0.79-0.404-0.248-0.934-0.121-1.182 0.283-0.248 0.405-0.121 0.934 0.283 1.182 0.565 0.347 1.166 0.654 1.786 0.912 1.295 0.538 2.772 0.249 3.764-0.738l3.415-3.4c0.969-0.963 1.272-2.408 0.773-3.68z" fill="#000" fill-rule="evenodd"/>
   </g>
  </g>
 </g>
 <path d="m2.3709 20.121c-0.22699-0.07133-0.42381-0.28216-0.47243-0.50604-0.01805-0.08312-0.02364-0.63001-0.01857-1.8152l0.0073-1.6963 0.05438-0.10385c0.03798-0.07255 1.0013-1.0467 3.1954-3.2311l3.1411-3.1273-0.17469-0.3391c-0.45337-0.88004-0.5636-1.271-0.53808-1.9082 0.02286-0.57061 0.21647-1.1236 0.54635-1.5604 0.08418-0.11146 0.76756-0.80729 1.7246-1.7559 1.674-1.6594 1.7169-1.6976 2.1419-1.9082 0.60613-0.30037 1.3564-0.37187 2.0133-0.19188 0.41154 0.11278 1.2876 0.50435 1.8607 0.83168 1.8361 1.0486 3.1413 2.5427 4.0543 4.6407 0.28291 0.65016 0.35432 0.97055 0.33423 1.4993-0.02433 0.64011-0.25669 1.2434-0.65672 1.7051-0.07825 0.09033-0.83508 0.8506-1.6819 1.6895-1.384 1.3712-1.5636 1.5411-1.7783 1.682-0.80655 0.52942-1.7863 0.62942-2.6829 0.27379-0.55085-0.21849-1.4723-0.7056-1.6387-0.86624-0.15557-0.1502-0.19505-0.25198-0.19511-0.50312-4.8e-5 -0.19659 0.0064-0.23018 0.06244-0.32503 0.14223-0.2407 0.35296-0.36603 0.61677-0.36682 0.19785-5.93e-4 0.24157 0.01545 0.59985 0.22011 0.34506 0.1971 0.86744 0.45055 1.12 0.54338 0.16539 0.06079 0.24236 0.07504 0.45518 0.08426 0.2956 0.0128 0.51948-0.03479 0.76374-0.16235 0.15192-0.07934 0.60621-0.51393 2.4164-2.3116 0.91252-0.90625 0.93275-0.92838 1.0269-1.1206 0.15078-0.30803 0.19635-0.60629 0.13944-0.91257-0.03335-0.17953-0.19211-0.57055-0.41524-1.0228-0.81638-1.6547-1.8243-2.7296-3.3638-3.5878-0.43182-0.24069-1.1609-0.56547-1.4267-0.63551-0.37068-0.0977-0.77906-0.03224-1.134 0.18179-0.0802 0.04836-0.66943 0.61429-1.6785 1.6122-1.4487 1.4326-1.5607 1.549-1.6394 1.7038-0.17208 0.33832-0.21697 0.69412-0.13016 1.0318 0.04991 0.19415 0.3474 0.82458 0.57282 1.2139 0.26058 0.45005 0.27151 0.47692 0.27244 0.66911 6.33e-4 0.13116-0.01183 0.20121-0.05144 0.28917-0.04394 0.09757-0.56813 0.62928-3.2877 3.3348l-3.2354 3.2188v2.1579h1.7369l0.0073-0.73274c0.0071-0.71307 0.0087-0.73599 0.06209-0.85334 0.06412-0.14108 0.21697-0.28983 0.37026-0.3603 0.10276-0.04725 0.14715-0.05024 0.84378-0.05683l0.73535-7e-3 0.01396-1.4862 0.06199-0.11685c0.07426-0.13998 0.21521-0.27197 0.36323-0.34013 0.10523-0.04845 0.13894-0.05009 1.1797-0.05753 1.0826-0.0077 1.2494 0.0015 1.4094 0.07691 0.13396 0.06325 0.26288 0.19146 0.33026 0.32844 0.05392 0.10964 0.06476 0.16128 0.06406 0.3052-0.0015 0.29618-0.14153 0.51392-0.41003 0.63728l-0.14526 0.06674-1.4498 0.01498v0.70129c0 0.64572-0.0037 0.71111-0.04658 0.82516-0.06049 0.16084-0.173 0.28947-0.32786 0.3748l-0.12431 0.0685-1.5079 0.02308-0.0116 0.75006c-0.01118 0.72287-0.0135 0.75358-0.06394 0.84752-0.08209 0.15282-0.18331 0.25301-0.32622 0.32282l-0.1318 0.06439-1.7282 0.0045c-1.3705 0.0035-1.7482-0.0017-1.8244-0.02572z" fill-rule="evenodd" stroke-width="0"/>
 <path d="m2.3857 20.108c-0.11324-0.03426-0.20059-0.09152-0.29486-0.19327-0.19563-0.21114-0.17976-0.03881-0.1869-2.0296-0.0057-1.5859-0.0025-1.7788 0.03072-1.8427 0.05261-0.10122 0.59388-0.64913 3.6397-3.6844 1.4806-1.4755 2.6952-2.697 2.699-2.7145 0.0038-0.01747-0.09144-0.22784-0.21165-0.46749-0.38406-0.76562-0.47877-1.0871-0.47929-1.627-1.63e-4 -0.17643 0.01487-0.40088 0.03429-0.51167 0.07407-0.42254 0.2543-0.85567 0.4821-1.1584 0.1339-0.17797 2.1785-2.2391 2.8957-2.9192 0.53107-0.50355 0.66983-0.61433 0.9437-0.75339 0.4474-0.22714 0.8804-0.32007 1.4084-0.30225 0.51353 0.01733 0.85248 0.11825 1.6833 0.50121 2.1733 1.0017 3.666 2.5045 4.7341 4.7657 0.33906 0.71786 0.43667 1.0481 0.45421 1.5362 0.02352 0.6547-0.12271 1.1813-0.47697 1.7177-0.11377 0.17228-2.0408 2.1215-2.9893 3.0236-0.51945 0.49407-0.65587 0.59858-0.9927 0.76047-0.62986 0.30275-1.299 0.36464-1.9795 0.18307-0.54853-0.14637-1.7657-0.76653-2.0059-1.022-0.12329-0.13114-0.15521-0.22664-0.15508-0.46413 7e-5 -0.14886 0.0095-0.18949 0.06766-0.29028 0.14003-0.24289 0.33215-0.35463 0.61108-0.35541 0.17797-5.01e-4 0.18402 0.0015 0.46396 0.15015 0.46684 0.24798 1.1086 0.55776 1.2696 0.61278 0.20598 0.07042 0.63955 0.0877 0.86753 0.03454 0.35655-0.08312 0.37996-0.1029 1.9952-1.6866 1.3265-1.3006 1.6834-1.6737 1.777-1.8583 0.15558-0.30661 0.20641-0.71992 0.12638-1.0275-0.08567-0.32923-0.52433-1.2374-0.8585-1.7774-0.72583-1.1729-1.6238-2.0301-2.8521-2.7229-0.47721-0.26915-1.2318-0.60417-1.5079-0.6694-0.30834-0.07287-0.70893-0.02277-1.0044 0.1256-0.17498 0.08788-0.74655 0.62963-2.271 2.1526-1.044 1.0429-1.0986 1.1017-1.1767 1.2661-0.12719 0.2679-0.15992 0.42906-0.14741 0.72588 0.0091 0.21483 0.02201 0.28296 0.08348 0.43893 0.09796 0.24857 0.379 0.81522 0.5705 1.1502 0.18248 0.31925 0.2223 0.42075 0.22212 0.56624-2.08e-4 0.16915-0.0399 0.26968-0.16752 0.42421-0.06544 0.07925-1.5316 1.5518-3.2581 3.2724l-3.1392 3.1283v2.1787h1.7328l0.01512-0.24592c0.0083-0.13526 0.01512-0.45012 0.01512-0.69971 0-0.54946 0.01913-0.63486 0.17995-0.8033 0.20989-0.21982 0.21166-0.22022 1.0568-0.23833 0.4059-0.0087 0.74456-0.02234 0.75258-0.03033 8e-3 -8e-3 0.01891-0.34398 0.02419-0.74667l0.0096-0.73216 0.05989-0.11086c0.06888-0.12749 0.19108-0.2448 0.33429-0.32086l0.09964-0.05292h1.1715c0.91661 0 1.1905 0.0066 1.2588 0.03074 0.15604 0.05495 0.30776 0.19548 0.38961 0.36088 0.06958 0.14061 0.07395 0.16326 0.06198 0.32086-0.02191 0.28815-0.1364 0.45712-0.39972 0.5899l-0.13919 0.07019-0.42916 3.87e-4c-0.23603 2.06e-4 -0.56097 0.0071-0.72207 0.01525l-0.29291 0.01487-0.03162 1.4356-0.06899 0.14282c-0.07177 0.14857-0.14389 0.22299-0.3073 0.31709-0.09477 0.05458-0.11056 0.05591-0.85323 0.0721l-0.7567 0.01649-0.01624 0.71813c-0.0089 0.39497-0.02618 0.75643-0.03833 0.80324-0.03469 0.13367-0.18131 0.29889-0.33981 0.38294l-0.14012 0.0743-1.7366-2e-3c-0.95516-0.0011-1.7627-0.0099-1.7948-0.01958z" fill="#2e3a59" fill-rule="evenodd" stroke-width="0"/>
 <path d="m14.776 7.9883c-0.46771-0.05827-0.87673-0.4609-0.9565-0.9416-0.12696-0.76486 0.58129-1.4452 1.3394-1.2867 0.42682 0.08927 0.7467 0.37692 0.87062 0.78289 0.06386 0.20915 0.05254 0.53998-0.0253 0.73987-0.18595 0.47749-0.69788 0.77155-1.2283 0.70548z" fill="#2e3a59" fill-rule="evenodd" stroke-width="0"/>
</svg>
