<svg xmlns="http://www.w3.org/2000/svg" xmlns:xlink="http://www.w3.org/1999/xlink" width="24" height="24" viewBox="0 0 24 24">
    <defs>
        <path id="7iowt5n2ja" d="M0 0H24V24H0z"/>
    </defs>
    <g fill="none" fill-rule="evenodd">
        <g>
            <mask id="wic9al2scb" fill="#fff">
                <use xlink:href="#7iowt5n2ja"/>
            </mask>
            <path fill="#2E3A59" d="M17.659 6.34L20 4v7h-7.004l3.222-3.22c-1.08-1.09-2.56-1.779-4.219-1.78-2.609.003-4.828 1.672-5.648 4h-.017c-.114.322-.202.656-.26 1H4.063c.49-3.948 3.85-7 7.933-7h.01c2.21 0 4.208.894 5.654 2.34zM4 20l2.341-2.34C7.787 19.106 9.785 20 11.995 20h.01c4.084 0 7.443-3.052 7.933-7h-2.013c-.057.344-.145.678-.259 1h-.017c-.82 2.328-3.039 3.997-5.648 4-1.66-.001-3.139-.69-4.219-1.78L11.004 13H4v7z" mask="url(#wic9al2scb)"/>
        </g>
    </g>
</svg>
