<svg width="24" height="24" version="1.1" viewBox="0 0 24 24" xmlns="http://www.w3.org/2000/svg" xmlns:xlink="http://www.w3.org/1999/xlink">
 <defs>
  <path id="b" d="M0 0H24V24H0z"/>
 </defs>
 <g fill-rule="evenodd">
  <mask id="a" fill="#fff">
   <use xlink:href="#b"/>
  </mask>
  <path d="M11.715 10c0-1.151-.849-2-2-2s-2 .849-2 2 .848 2 2 2c1.151 0 2-.849 2-2zM14 9v2h4V9h-4zm1 4v2h3v-2h-3zm-1.57 3H6c0-1.374 1.676-3.25 3.715-3.25 2.039 0 3.715 1.876 3.715 3.25zM20 4H4c-1.103 0-2 .841-2 1.875v12.25C2 19.159 2.897 20 4 20h16c1.103 0 2-.841 2-1.875V5.875C22 4.841 21.103 4 20 4zm0 14l-16-.011V6l16 .011V18z" fill="#2E3A59" mask="url(#a)"/>
 </g>
</svg>
