<svg width="24" height="24" version="1.1" viewBox="0 0 24 24" xmlns="http://www.w3.org/2000/svg" xmlns:xlink="http://www.w3.org/1999/xlink">
 <defs>
  <path id="b" d="M0 0H24V24H0z"/>
  <mask id="c" fill="#fff">
   <path d="m0 0h24v24h-24z"/>
  </mask>
 </defs>
 <g transform="translate(-.42442 3.5648)" fill-rule="evenodd">
  <mask id="a" fill="#ffffff">
   <use width="100%" height="100%" xlink:href="#b"/>
  </mask>
  <path d="m12 8c0 2.21-1.79 4-4 4s-4-1.79-4-4 1.79-4 4-4 4 1.79 4 4zm-2 0c0 1.105-0.895 2-2 2s-2-0.895-2-2 0.895-2 2-2 2 0.895 2 2zm9 3h-2l2 2-2-2v2-2zm-5 8c0-3.314-2.686-6-6-6s-6 2.686-6 6h2c0-2.21 1.79-4 4-4s4 1.79 4 4z" fill="#2e3a59" mask="url(#a)"/>
 </g>
 <path transform="matrix(.55014 0 0 .55014 10.881 -1.4228)" d="m9 12c0 1.642 1.358 3 3 3 1.641 0 3-1.358 3-3 0-1.641-1.359-3-3-3-1.642 0-3 1.359-3 3zm-6.895-0.316-0.105 0.316 0.104 0.316c0.022 0.067 2.304 6.684 9.896 6.684s9.874-6.617 9.895-6.684l0.105-0.316-0.104-0.316c-0.022-0.067-2.304-6.684-9.896-6.684s-9.874 6.617-9.895 6.684zm2.012 0.316c0.5-1.158 2.564-5 7.883-5 5.322 0 7.384 3.846 7.883 5-0.5 1.158-2.564 5-7.883 5-5.322 0-7.384-3.846-7.883-5z" fill="#2e3a59" fill-rule="evenodd" mask="url(#c)" stroke="#2e3a59"/>
</svg>
